SplineFontDB: 3.0
FontName: Pseudocode
FullName: Pseudocode
FamilyName: Pseudocode
Weight: Medium
Copyright: Created by Caleb Eggensperger with FontForge 2.0 (http://fontforge.sf.net)\n\nBased on DejaVu Sans Mono, available from http://dejavu-fonts.org\n\nLicensed under the same license as the DejaVu fonts: http://dejavu-fonts.org/wiki/License\n\nSee http://github.com/calebegg/pseudocode for more info.
UComments: "2011-5-22: Created." 
Version: beta
ItalicAngle: 0
UnderlinePosition: -85
UnderlineWidth: 90
Ascent: 1556
Descent: 492
LayerCount: 2
Layer: 0 0 "Back"  1
Layer: 1 0 "Fore"  0
NeedsXUIDChange: 1
XUID: [1021 655 1192479195 10794872]
FSType: 0
OS2Version: 0
OS2_WeightWidthSlopeOnly: 0
OS2_UseTypoMetrics: 1
CreationTime: 1306131343
ModificationTime: 1310328662
OS2TypoAscent: 0
OS2TypoAOffset: 1
OS2TypoDescent: 0
OS2TypoDOffset: 1
OS2TypoLinegap: 184
OS2WinAscent: 0
OS2WinAOffset: 1
OS2WinDescent: 0
OS2WinDOffset: 1
HheadAscent: 0
HheadAOffset: 1
HheadDescent: 0
HheadDOffset: 1
OS2Vendor: 'PfEd'
Lookup: 4 0 1 "liga"  {"'liga'"  } ['liga' ('latn' <'ISM ' 'KSM ' 'LSM ' 'MOL ' 'NSM ' 'ROM ' 'SKS ' 'dflt' > ) ]
MarkAttachClasses: 1
DEI: 91125
Encoding: UnicodeBmp
UnicodeInterp: none
NameList: Adobe Glyph List
DisplaySize: -24
AntiAlias: 1
FitToEm: 1
WinInfo: 52 26 12
BeginPrivate: 0
EndPrivate
Grid
-2048 642 m 0
 4096 642 l 0
  Named: "omid" 
EndSplineSet
BeginChars: 65536 143

StartChar: uniE000
Encoding: 57344 57344 0
Width: 2466
LigCaretCntFixed: 1
Flags: W
HStem: 352 172<352 2114> 760 170<352 2114>
LayerCount: 2
Fore
SplineSet
352 524 m 1
 2114 524 l 1
 2114 352 l 1
 352 352 l 1
 352 524 l 1
352 930 m 1
 2114 930 l 1
 2114 760 l 1
 352 760 l 1
 352 930 l 1
EndSplineSet
Validated: 1
EndChar

StartChar: uniE001
Encoding: 57345 57345 1
Width: 2466
Flags: W
HStem: 352 172<352 905.5 1243.5 2114> 760 170<352 1218.5 1558.5 2114>
DStem2: 741.5 141 866.5 37 0.612058 0.790813<0 267.239 610.134 781.465 1124 1392.82>
LayerCount: 2
Fore
SplineSet
352 930 m 1
 1351.5 930 l 1
 1597.5 1245 l 1
 1722.5 1143 l 1
 1558.5 930 l 1
 2114 930 l 1
 2114 760 l 1
 1427.5 760 l 1
 1243.5 524 l 1
 2114 524 l 1
 2114 352 l 1
 1114.5 352 l 1
 866.5 37 l 1
 741.5 141 l 1
 905.5 352 l 1
 352 352 l 1
 352 524 l 1
 1034.5 524 l 1
 1218.5 760 l 1
 352 760 l 1
 352 930 l 1
EndSplineSet
Validated: 1
LCarets2: 1 1227 
EndChar

StartChar: uniE002
Encoding: 57346 57346 2
Width: 2466
Flags: W
HStem: 0 170<500 1966> 256 182<1902.7 1966>
LayerCount: 2
Fore
SplineSet
1966 438 m 1
 1966 256 l 1
 500 588 l 1
 500 756 l 1
 1966 1087 l 1
 1966 903 l 1
 756 672 l 1
 1966 438 l 1
1966 170 m 1
 1966 0 l 1
 500 0 l 1
 500 170 l 1
 1966 170 l 1
EndSplineSet
Validated: 1
LCarets2: 1 0 
EndChar

StartChar: uniE003
Encoding: 57347 57347 3
Width: 2466
Flags: W
HStem: 0 170<500 1966> 256 182<500 563.303>
LayerCount: 2
Fore
SplineSet
500 438 m 1
 1712 672 l 1
 500 903 l 1
 500 1087 l 1
 1966 756 l 1
 1966 588 l 1
 500 256 l 1
 500 438 l 1
500 170 m 1
 1966 170 l 1
 1966 0 l 1
 500 0 l 1
 500 170 l 1
EndSplineSet
Validated: 1
EndChar

StartChar: uniE004
Encoding: 57348 57348 4
Width: 2466
Flags: W
HStem: 1123 20G<1260.93 1311.5 2160.93 2211.5>
DStem2: 461.5 641 254.5 559 0.929926 -0.367747<0 907.013> 1361.5 641 1154.5 559 0.929926 -0.367747<0 907.013>
LayerCount: 2
Fore
SplineSet
2211.5 961 m 5
 1361.5 641 l 5
 2211.5 324 l 5
 2211.5 141 l 5
 1154.5 559 l 5
 1154.5 725 l 5
 2211.5 1143 l 5
 2211.5 961 l 5
1311.5 961 m 1
 461.5 641 l 1
 1311.5 324 l 1
 1311.5 141 l 1
 254.5 559 l 1
 254.5 725 l 1
 1311.5 1143 l 1
 1311.5 961 l 1
EndSplineSet
Validated: 1
LCarets2: 1 0 
EndChar

StartChar: uniE005
Encoding: 57349 57349 5
Width: 2466
Flags: W
HStem: 1123 20G<254.5 305.074 1154.5 1205.07>
DStem2: 254.5 1143 254.5 961 0.929926 -0.367747<66.93 975.046> 254.5 324 254.5 141 0.929926 0.367747<0 907.013> 1154.5 1143 1154.5 961 0.929926 -0.367747<66.93 975.046> 1154.5 324 1154.5 141 0.929926 0.367747<0 907.013>
LayerCount: 2
Fore
SplineSet
254.5 961 m 1
 254.5 1143 l 1
 1311.5 725 l 1
 1311.5 559 l 1
 254.5 141 l 1
 254.5 324 l 1
 1104.5 641 l 1
 254.5 961 l 1
1154.5 961 m 1
 1154.5 1143 l 1
 2211.5 725 l 1
 2211.5 559 l 1
 1154.5 141 l 1
 1154.5 324 l 1
 2004.5 641 l 1
 1154.5 961 l 1
EndSplineSet
Validated: 1
EndChar

StartChar: equal
Encoding: 61 61 6
Width: 1233
Flags: W
HStem: 352 172<88 1145> 760 170<88 1145>
LayerCount: 2
Fore
SplineSet
88 524 m 1
 1145 524 l 1
 1145 352 l 1
 88 352 l 1
 88 524 l 1
88 930 m 1
 1145 930 l 1
 1145 760 l 1
 88 760 l 1
 88 930 l 1
EndSplineSet
Validated: 1
EndChar

StartChar: asterisk
Encoding: 42 42 7
Width: 1233
Flags: W
VStem: 559 115<174.2 551.2 731.2 1108.2>
DStem2: 524 641.2 559 551.2 0.865707 0.500551<-407.239 -14.7498 174.906 567.186> 559 731.2 524 641.2 0.865707 -0.500551<-392.28 0 189.655 582.145>
LayerCount: 2
Fore
SplineSet
1067 835.2 m 5
 709 641.2 l 5
 1067 446.2 l 5
 1010 348.2 l 5
 674 551.2 l 5
 674 174.2 l 5
 559 174.2 l 5
 559 551.2 l 5
 223 348.2 l 5
 166 446.2 l 5
 524 641.2 l 5
 166 835.2 l 5
 223 934.2 l 5
 559 731.2 l 5
 559 1108.2 l 5
 674 1108.2 l 5
 674 731.2 l 5
 1010 934.2 l 5
 1067 835.2 l 5
EndSplineSet
Validated: 1
EndChar

StartChar: exclam
Encoding: 33 33 8
Width: 1233
Flags: W
HStem: 0 254<515 718> 1473 20G<515 718>
VStem: 515 203<0 254 594.288 1493>
LayerCount: 2
Fore
SplineSet
515 1493 m 1
 718 1493 l 1
 718 838 l 1
 697 481 l 1
 536 481 l 1
 515 838 l 1
 515 1493 l 1
515 254 m 1
 718 254 l 1
 718 0 l 1
 515 0 l 1
 515 254 l 1
EndSplineSet
Validated: 1
EndChar

StartChar: uniE006
Encoding: 57350 57350 9
Width: 2466
Flags: W
HStem: 0 21G<500 701.018 1764.98 1966>
LayerCount: 2
Fore
SplineSet
1966 0 m 1
 1775 0 l 1
 1233 1082 l 1
 691 0 l 1
 500 0 l 1
 1114 1186 l 1
 1351 1186 l 1
 1966 0 l 1
EndSplineSet
Validated: 1
EndChar

StartChar: uniE007
Encoding: 57351 57351 10
Width: 2466
Flags: W
HStem: 0 21G<1103.65 1361.37>
DStem2: 691 1186 500 1186 0.459749 -0.888049<0 1210.05> 1233 104 1351 0 0.460339 0.887743<0 1210.04>
LayerCount: 2
Fore
SplineSet
1966 1186 m 1
 1351 0 l 1
 1114 0 l 1
 500 1186 l 1
 691 1186 l 1
 1233 104 l 1
 1775 1186 l 1
 1966 1186 l 1
EndSplineSet
Validated: 1
EndChar

StartChar: uniE009
Encoding: 57353 57353 11
Width: 2466
Flags: W
HStem: 296 114<1093.5 1132.5 1271.5 1533.5 1672.5 1729.5> 983 114<1093.5 1132.5 1271.5 1533.5 1672.5 1729.5>
VStem: 1729.5 114<410 983>
DStem2: 792.5 697 622.5 697 0.732128 -0.681167<0 415.865> 622.5 697 792.5 697 0.732975 0.680255<124.606 539.784> 1271.5 983 1132.5 983 0.573366 -0.819299<0 228.32 391.36 619.68> 1132.5 410 1271.5 410 0.573366 0.819299<79.6979 308.018 471.058 699.378>
LayerCount: 2
Fore
SplineSet
622.5 697 m 1
 1053.5 1097 l 1
 1843.5 1097 l 1
 1843.5 296 l 1
 1053.5 296 l 1
 622.5 697 l 1
792.5 697 m 1
 1093.5 410 l 1
 1132.5 410 l 1
 1332.5 696 l 1
 1132.5 983 l 1
 1093.5 983 l 1
 792.5 697 l 1
1533.5 983 m 1
 1271.5 983 l 1
 1402.5 796 l 1
 1533.5 983 l 1
1672.5 983 m 1
 1472.5 696 l 1
 1672.5 410 l 1
 1729.5 410 l 1
 1729.5 983 l 1
 1672.5 983 l 1
1271.5 410 m 1
 1533.5 410 l 1
 1402.5 597 l 1
 1271.5 410 l 1
EndSplineSet
Validated: 1
EndChar

StartChar: uniE00A
Encoding: 57354 57354 12
Width: 2466
Flags: W
HStem: 556 164<500 1581>
VStem: 1802 164<306 597 679 970>
DStem2: 1511 970 1421 880 0.707107 -0.707107<0 226.274> 1421 396 1511 306 0.707107 0.707107<0 226.274>
LayerCount: 2
Fore
SplineSet
1802 679 m 1
 1802 970 l 1
 1966 970 l 1
 1966 306 l 1
 1802 306 l 1
 1802 597 l 1
 1511 306 l 1
 1421 396 l 1
 1581 556 l 1
 500 556 l 1
 500 720 l 1
 1581 720 l 1
 1421 880 l 1
 1511 970 l 1
 1802 679 l 1
EndSplineSet
Validated: 1
LCarets2: 1 0 
EndChar

StartChar: uniE00B
Encoding: 57355 57355 13
Width: 2466
Flags: W
HStem: 0 21G<770.069 810> 250 164<720 1802>
VStem: 1802 164<414 861>
DStem2: 500 373 720 414 0.705889 0.708323<184.337 410.611> 720 250 500 291 0.705889 -0.708323<0 226.274>
LayerCount: 2
Fore
SplineSet
720 414 m 1
 1802 414 l 1
 1802 861 l 1
 1966 861 l 1
 1966 250 l 1
 720 250 l 1
 880 90 l 1
 790 0 l 1
 500 291 l 1
 500 373 l 1
 790 664 l 1
 880 574 l 1
 720 414 l 1
EndSplineSet
Validated: 1
LCarets2: 1 0 
EndChar

StartChar: uniE00C
Encoding: 57356 57356 14
Width: 2466
Flags: W
HStem: -466 172<1523 2119> 1473 20G<179 379.34>
VStem: 1355 168<-294 181> 2119 168<-294 181>
DStem2: 370 1493 179 1493 0.423593 -0.905853<0 1777.01>
LayerCount: 2
Fore
SplineSet
370 1493 m 1
 1156 -190 l 1
 966 -190 l 1
 179 1493 l 1
 370 1493 l 1
1355 -466 m 1
 1355 181 l 1
 1523 181 l 1
 1523 -294 l 1
 2119 -294 l 1
 2119 181 l 1
 2287 181 l 1
 2287 -466 l 1
 1355 -466 l 1
EndSplineSet
Validated: 1
LCarets2: 1 0 
EndChar

StartChar: uniE00D
Encoding: 57357 57357 15
Width: 2466
Flags: W
HStem: 938 555<1384 1558 1767 1941>
VStem: 1384 174<938 1493> 1767 174<938 1493>
DStem2: 716 1493 525 1493 0.423593 -0.905853<0 1777.01>
LayerCount: 2
Fore
SplineSet
1941 1493 m 1
 1941 938 l 1
 1767 938 l 1
 1767 1493 l 1
 1941 1493 l 1
1558 1493 m 1
 1558 938 l 1
 1384 938 l 1
 1384 1493 l 1
 1558 1493 l 1
716 1493 m 1
 1502 -190 l 1
 1312 -190 l 1
 525 1493 l 1
 716 1493 l 1
EndSplineSet
Validated: 1
LCarets2: 1 0 
EndChar

StartChar: uniE00E
Encoding: 57358 57358 16
Width: 2466
Flags: W
HStem: 1473 20G<671.5 871.84 1620.5 1794.5>
VStem: 1620.5 174<938 1493>
DStem2: 862.5 1493 671.5 1493 0.423593 -0.905853<0 1777.01>
LayerCount: 2
Fore
SplineSet
1794.5 1493 m 5
 1794.5 938 l 5
 1620.5 938 l 5
 1620.5 1493 l 5
 1794.5 1493 l 5
862.5 1493 m 1
 1648.5 -190 l 1
 1458.5 -190 l 1
 671.5 1493 l 1
 862.5 1493 l 1
EndSplineSet
Validated: 1
LCarets2: 1 0 
EndChar

StartChar: uniE00F
Encoding: 57359 57359 17
Width: 2466
Flags: W
HStem: 1473 20G<394.5 594.84 1094.5 1294.84>
DStem2: 585.5 1493 394.5 1493 0.423593 -0.905853<0 1777.01> 1285.5 1493 1094.5 1493 0.423593 -0.905853<0 1777.01>
LayerCount: 2
Fore
SplineSet
1881.5 -190 m 1
 1094.5 1493 l 1
 1285.5 1493 l 1
 2071.5 -190 l 1
 1881.5 -190 l 1
1181.5 -190 m 1
 394.5 1493 l 1
 585.5 1493 l 1
 1371.5 -190 l 1
 1181.5 -190 l 1
EndSplineSet
Validated: 1
EndChar

StartChar: less
Encoding: 60 60 18
Width: 1233
Flags: W
HStem: 1123 20G<1094.43 1145>
DStem2: 295 641 88 559 0.929926 -0.367747<0 907.013>
LayerCount: 2
Fore
SplineSet
1145 961 m 1
 295 641 l 1
 1145 324 l 1
 1145 141 l 1
 88 559 l 1
 88 725 l 1
 1145 1143 l 1
 1145 961 l 1
EndSplineSet
Validated: 1
EndChar

StartChar: greater
Encoding: 62 62 19
Width: 1233
Flags: W
HStem: 1123 20G<88 138.574>
DStem2: 88 1143 88 961 0.929926 -0.367747<66.93 975.046> 88 324 88 141 0.929926 0.367747<0 907.013>
LayerCount: 2
Fore
SplineSet
88 961 m 1
 88 1143 l 1
 1145 725 l 1
 1145 559 l 1
 88 141 l 1
 88 324 l 1
 938 641 l 1
 88 961 l 1
EndSplineSet
Validated: 1
EndChar

StartChar: uniE008
Encoding: 57352 57352 20
Width: 2466
Flags: W
HStem: 561 164<300 1895>
DStem2: 1650 1200 1535 1085 0.707107 -0.707107<0 509.117> 1535 203 1650 88 0.708478 0.705732<0.315796 507.704>
LayerCount: 2
Fore
SplineSet
2166 602 m 1
 1650 88 l 1
 1535 203 l 1
 1895 561 l 1
 300 561 l 1
 300 725 l 1
 1895 725 l 1
 1535 1085 l 1
 1650 1200 l 1
 2166 684 l 1
 2166 602 l 1
EndSplineSet
Validated: 1
LCarets2: 1 0 
EndChar

StartChar: bar
Encoding: 124 124 22
Width: 1233
Flags: W
HStem: 0 21G<530 702>
VStem: 530 172<0 695 870 1565>
LayerCount: 2
Fore
SplineSet
702 1565 m 1
 702 870 l 1
 530 870 l 1
 530 1565 l 1
 702 1565 l 1
702 695 m 1
 702 0 l 1
 530 0 l 1
 530 695 l 1
 702 695 l 1
EndSplineSet
Validated: 1
EndChar

StartChar: ampersand
Encoding: 38 38 23
Width: 1233
Flags: W
HStem: -29 154<406.992 760.836> 0 21G<993.688 1221> 1290 183<790.359 874> 1366 154<470.227 819.906>
VStem: 57 176<299.882 645.903> 236 176<1043.74 1308.82> 1040 160<416.013 760>
DStem2: 547 907 416 803 0.596454 -0.802647<5.33978 696.805 868.954 1002.97>
LayerCount: 2
Fore
SplineSet
547 907 m 2x1e
 963 348 l 1
 989 380.667 1008.33 422 1021 472 c 0
 1033.67 522 1040 581.667 1040 651 c 0
 1040 672.333 1039 706.333 1037 753 c 1
 1036 760 l 1
 1200 760 l 1
 1200 721 l 2
 1200 613.667 1187.67 519.5 1163 438.5 c 0
 1138.33 357.5 1101 287.667 1051 229 c 1
 1221 0 l 1
 1008 0 l 1x5e
 930 109 l 1
 874.667 62.3333 816 27.6667 754 5 c 0
 692 -17.6667 625.667 -29 555 -29 c 0
 411 -29 292 15.8333 198 105.5 c 0
 104 195.167 57 308 57 444 c 0
 57 535.333 80 620 126 698 c 0
 172 776 241.333 848.333 334 915 c 1
 300.667 963 276 1010 260 1056 c 0
 244 1102 236 1148.67 236 1196 c 0
 236 1296 269.167 1375 335.5 1433 c 0
 401.833 1491 492.667 1520 608 1520 c 0x9e
 651.333 1520 694.833 1516 738.5 1508 c 0
 782.167 1500 827.334 1488.33 874 1473 c 1
 874 1290 l 1x2e
 834.667 1316 794.167 1335.17 752.5 1347.5 c 0
 710.833 1359.83 667 1366 621 1366 c 0
 556.333 1366 505.333 1350.83 468 1320.5 c 0
 430.667 1290.17 412 1249.33 412 1198 c 0
 412 1158.67 421.667 1117.5 441 1074.5 c 0
 460.334 1031.5 495.667 975.667 547 907 c 2x1e
416 803 m 1
 354.667 754.333 308.833 702.833 278.5 648.5 c 0
 248.167 594.166 233 536.333 233 475 c 0
 233 374.333 266.333 290.833 333 224.5 c 0
 399.667 158.167 484.667 125 588 125 c 0x8e
 616 125 645.333 129 676 137 c 0
 706.667 145 736.667 156.667 766 172 c 0
 784 182 798.833 190.833 810.5 198.5 c 0
 822.173 206.167 833.34 214.334 844 223 c 1
 416 803 l 1
EndSplineSet
Validated: 1
EndChar

StartChar: quotedbl
Encoding: 34 34 24
Width: 1233
Flags: W
HStem: 938 555<338 512 721 895>
VStem: 338 174<938 1493> 721 174<938 1493>
LayerCount: 2
Fore
SplineSet
895 1493 m 1
 895 938 l 1
 721 938 l 1
 721 1493 l 1
 895 1493 l 1
512 1493 m 1
 512 938 l 1
 338 938 l 1
 338 1493 l 1
 512 1493 l 1
EndSplineSet
Validated: 1
EndChar

StartChar: numbersign
Encoding: 35 35 25
Width: 1233
Flags: W
HStem: 0 21G<156 320.072 561 726.024> 414 153<2 260 459 666 864 1114> 901 154<117 383 580 788 985 1229>
DStem2: 156 0 315 0 0.243467 0.969909<38.7113 426.863 623.709 929.155 1126.48 1515.36> 561 0 721 0 0.243467 0.969909<38.9547 427.106 623.709 929.155 1126.48 1515.61>
LayerCount: 2
Fore
SplineSet
684 1470 m 1
 580 1055 l 1
 825 1055 l 1
 930 1470 l 1
 1090 1470 l 1
 985 1055 l 1
 1229 1055 l 1
 1229 901 l 1
 948 901 l 1
 864 567 l 1
 1114 567 l 1
 1114 414 l 1
 825 414 l 1
 721 0 l 1
 561 0 l 1
 666 414 l 1
 420 414 l 1
 315 0 l 1
 156 0 l 1
 260 414 l 1
 2 414 l 1
 2 567 l 1
 299 567 l 1
 383 901 l 1
 117 901 l 1
 117 1055 l 1
 420 1055 l 1
 524 1470 l 1
 684 1470 l 1
788 901 m 1
 543 901 l 1
 459 567 l 1
 705 567 l 1
 788 901 l 1
EndSplineSet
Validated: 1
EndChar

StartChar: dollar
Encoding: 36 36 26
Width: 1233
Flags: W
HStem: 0 142<363.414 591 693 833.949> 1087 173<918.649 1018> 1183 138<450.923 592>
VStem: 190 181<846.815 1108.22> 592 100<-301 0 146 580 770 1181 1317.68 1556> 926 188<225.949 496.289>
LayerCount: 2
Fore
SplineSet
692 580 m 1x9c
 692 146 l 1
 765.333 148 822.667 168.333 864 207 c 0
 905.333 245.667 926 298.333 926 365 c 0
 926 427 907.333 475.167 870 509.5 c 0
 832.666 543.833 773.333 567.333 692 580 c 1x9c
592 770 m 1
 592 1183 l 1xbc
 522.666 1180.33 468.5 1160.33 429.5 1123 c 0
 390.5 1085.67 371 1035.67 371 973 c 0
 371 915.666 389.167 870.333 425.5 837 c 0
 461.834 803.664 517.334 781.33 592 770 c 1
692 -301 m 1
 592 -301 l 1
 591 0 l 1
 523 3.33333 455.5 12.6667 388.5 28 c 0
 321.5 43.3333 255.333 64.6667 190 92 c 1
 190 272 l 1
 256.667 230.667 323.833 199 391.5 177 c 0
 459.167 155 526 143.333 592 142 c 1
 592 600 l 1
 458.667 620.667 358.333 661.333 291 722 c 0
 223.667 782.667 190 863 190 963 c 0
 190 1067.67 225.167 1151.17 295.5 1213.5 c 0
 365.834 1275.84 464.667 1311.67 592 1321 c 1
 592 1556 l 1
 692 1556 l 1
 693 1321 l 1xbc
 745.667 1317.67 799 1311 853 1301 c 0
 907 1291 962 1277.33 1018 1260 c 1
 1018 1087 l 1xdc
 961.333 1115.67 906.167 1137.83 852.5 1153.5 c 0
 798.833 1169.17 745.333 1178.33 692 1181 c 1
 692 750 l 1
 829.333 729.333 934 686.667 1006 622 c 0
 1078 557.333 1114 473.667 1114 371 c 256
 1114 268.333 1075.17 182.667 997.5 114 c 0
 919.833 45.3333 818.333 8 693 2 c 1
 692 -301 l 1
EndSplineSet
Validated: 1
EndChar

StartChar: percent
Encoding: 37 37 27
Width: 1233
Flags: W
HStem: 0 135<757.333 999.595> 504 135<757.95 998.692> 793 135<230.086 472.433> 1296 136<230.655 472.671>
VStem: 33 135<990.086 1232.83> 537 135<991.832 1232.05> 561 135<197.062 441.185> 1063 137<199.139 439.831>
DStem2: 86 561 121 465 0.928843 0.370474<0 1122.71>
LayerCount: 2
Fore
SplineSet
696 319 m 0xfb
 696 267 713.5 223.333 748.5 188 c 0
 783.5 152.667 827 135 879 135 c 0
 930.333 135 973.833 152.833 1009.5 188.5 c 0
 1045.17 224.167 1063 267.667 1063 319 c 256
 1063 370.333 1045 414 1009 450 c 0
 973 486 929.667 504 879 504 c 0
 827 504 783.5 486.333 748.5 451 c 0
 713.5 415.667 696 371.667 696 319 c 0xfb
561 319 m 0
 561 409 591.667 484.833 653 546.5 c 0
 714.333 608.167 789.667 639 879 639 c 0
 921.667 639 962.167 631 1000.5 615 c 0
 1038.83 599 1073.33 575.667 1104 545 c 0
 1134.67 513.666 1158.33 478.666 1175 440 c 0
 1191.67 401.333 1200 361 1200 319 c 0
 1200 230.333 1169 155 1107 93 c 0
 1045 31 969 0 879 0 c 0
 788.333 0 712.667 30.5 652 91.5 c 0
 591.333 152.5 561 228.333 561 319 c 0
121 465 m 1
 86 561 l 1
 1128 979 l 1
 1169 883 l 1
 121 465 l 1
168 1112 m 0
 168 1059.33 185.5 1015.5 220.5 980.5 c 0
 255.5 945.5 299.333 928 352 928 c 0
 403.333 928 447 945.833 483 981.5 c 0
 519 1017.17 537 1060.67 537 1112 c 256xfd
 537 1163.33 519 1206.83 483 1242.5 c 0
 447 1278.17 403.333 1296 352 1296 c 256
 300.667 1296 257.167 1278.33 221.5 1243 c 0
 185.833 1207.67 168 1164 168 1112 c 0
33 1112 m 256
 33 1202 63.6667 1277.83 125 1339.5 c 0
 186.333 1401.17 262 1432 352 1432 c 0
 394.667 1432 435.5 1424 474.5 1408 c 0
 513.5 1392 548 1369 578 1339 c 256
 608 1309 631.167 1274.5 647.5 1235.5 c 0
 663.833 1196.5 672 1155.33 672 1112 c 0
 672 1022.67 641 947.167 579 885.5 c 0
 517 823.833 441.333 793 352 793 c 0
 262 793 186.333 823.667 125 885 c 0
 63.6667 946.333 33 1022 33 1112 c 256
EndSplineSet
Validated: 1
EndChar

StartChar: quotesingle
Encoding: 39 39 28
Width: 1233
Flags: W
HStem: 938 555<528 702>
VStem: 528 174<938 1493>
LayerCount: 2
Fore
SplineSet
702 1493 m 1
 702 938 l 1
 528 938 l 1
 528 1493 l 1
 702 1493 l 1
EndSplineSet
Validated: 1
EndChar

StartChar: parenleft
Encoding: 40 40 29
Width: 1233
Flags: W
HStem: 0.799805 21G<770.667 981>
VStem: 522 195<482.17 1068.51>
LayerCount: 2
Fore
SplineSet
981 1551.2 m 5
 892.333 1422 826.167 1293.22 782.5 1164.88 c 4
 738.833 1036.53 717 907.183 717 776.85 c 4
 717 647.083 738.833 517.883 782.5 389.25 c 4
 826.167 260.617 892.334 131.133 981 0.799805 c 5
 821 0.799805 l 5
 720.333 135.667 645.333 266.992 596 394.775 c 4
 546.667 522.558 522 649.917 522 776.85 c 4
 522 903.217 546.667 1030.43 596 1158.5 c 4
 645.333 1286.57 720.333 1417.47 821 1551.2 c 5
 981 1551.2 l 5
EndSplineSet
Validated: 1
EndChar

StartChar: parenright
Encoding: 41 41 30
Width: 1233
Flags: W
HStem: 0.799805 21G<252 462.333>
VStem: 516 195<482.448 1070.85>
LayerCount: 2
Fore
SplineSet
252 1551.2 m 5
 412 1551.2 l 5
 512.667 1417.47 587.667 1286.57 637 1158.5 c 4
 686.333 1030.43 711 903.217 711 776.85 c 4
 711 649.35 686.333 521.566 637 393.5 c 4
 587.667 265.433 512.667 134.533 412 0.799805 c 5
 252 0.799805 l 5
 340.667 132.267 406.833 262.317 450.5 390.95 c 4
 494.167 519.583 516 648.217 516 776.85 c 4
 516 906.05 494.167 1034.97 450.5 1163.6 c 4
 406.833 1292.23 340.666 1421.43 252 1551.2 c 5
EndSplineSet
Validated: 1
EndChar

StartChar: plus
Encoding: 43 43 31
Width: 1233
Flags: W
HStem: 557 170<88 532 700 1145>
VStem: 532 168<113 557 727 1171>
LayerCount: 2
Fore
SplineSet
700 1171 m 1
 700 727 l 1
 1145 727 l 1
 1145 557 l 1
 700 557 l 1
 700 113 l 1
 532 113 l 1
 532 557 l 1
 88 557 l 1
 88 727 l 1
 532 727 l 1
 532 1171 l 1
 700 1171 l 1
EndSplineSet
Validated: 1
EndChar

StartChar: comma
Encoding: 44 44 32
Width: 1233
Flags: W
HStem: -287 590<502 557>
VStem: 502 252<96 303>
LayerCount: 2
Fore
SplineSet
502 303 m 1
 754 303 l 1
 754 96 l 1
 557 -287 l 1
 403 -287 l 1
 502 96 l 1
 502 303 l 1
EndSplineSet
Validated: 1
EndChar

StartChar: hyphen
Encoding: 45 45 33
Width: 1233
Flags: W
HStem: 555 164<88 1145>
LayerCount: 2
Fore
SplineSet
88 719 m 1
 1145 719 l 5
 1145 555 l 1
 88 555 l 1
 88 719 l 1
EndSplineSet
Validated: 1
EndChar

StartChar: period
Encoding: 46 46 34
Width: 1233
Flags: W
HStem: 0 305<489 741>
VStem: 489 252<0 305>
LayerCount: 2
Fore
SplineSet
489 305 m 1
 741 305 l 1
 741 0 l 1
 489 0 l 1
 489 305 l 1
EndSplineSet
Validated: 1
EndChar

StartChar: slash
Encoding: 47 47 35
Width: 1233
Flags: W
HStem: 1473 20G<879.648 1079>
DStem2: 102 -190 293 -190 0.423593 0.905853<80.9062 1857.92>
LayerCount: 2
Fore
SplineSet
889 1493 m 1
 1079 1493 l 1
 293 -190 l 1
 102 -190 l 1
 889 1493 l 1
EndSplineSet
Validated: 1
EndChar

StartChar: zero
Encoding: 48 48 36
Width: 1233
Flags: W
HStem: -29 160<485.386 747.026> 616 269<522.707 708.746> 1360 160<485.386 747.026>
VStem: 133 203<354.108 1136.79> 483 267<656.222 843.746> 897 203<354.108 1136.79>
CounterMasks: 1 1c
LayerCount: 2
Fore
SplineSet
483 750 m 0
 483 786.668 495.833 818.335 521.5 845 c 0
 547.167 871.667 578 885 614 885 c 0
 651.333 885 683.333 871.667 710 845 c 0
 736.667 818.333 750 786.667 750 750 c 0
 750 712.667 736.833 681 710.5 655 c 0
 684.167 629 652 616 614 616 c 0
 576.667 616 545.5 628.667 520.5 654 c 0
 495.5 679.333 483 711.333 483 750 c 0
616 1360 m 0
 522 1360 451.833 1309.33 405.5 1208 c 0
 359.167 1106.67 336 952.333 336 745 c 0
 336 538.333 359.167 384.333 405.5 283 c 0
 451.833 181.667 522 131 616 131 c 0
 710.667 131 781.167 181.667 827.5 283 c 0
 873.833 384.333 897 538.333 897 745 c 0
 897 952.333 873.833 1106.67 827.5 1208 c 0
 781.167 1309.33 710.667 1360 616 1360 c 0
616 1520 m 256
 775.333 1520 895.833 1454.67 977.5 1324 c 0
 1059.17 1193.33 1100 1000.33 1100 745 c 0
 1100 490.333 1059.17 297.667 977.5 167 c 0
 895.833 36.3333 775.333 -29 616 -29 c 256
 456.667 -29 336.333 36.3334 255 167 c 0
 173.667 297.667 133 490.333 133 745 c 0
 133 1000.33 173.667 1193.33 255 1324 c 0
 336.333 1454.67 456.667 1520 616 1520 c 256
EndSplineSet
Validated: 1
EndChar

StartChar: one
Encoding: 49 49 37
Width: 1233
Flags: W
HStem: 0 170<270 584 784 1094> 1473 20G<491.189 784>
VStem: 584 200<170 1311>
DStem2: 246 1419 246 1235 0.975641 0.219375<0 306.074>
LayerCount: 2
Fore
SplineSet
270 170 m 1
 584 170 l 1
 584 1311 l 1
 246 1235 l 1
 246 1419 l 1
 582 1493 l 1
 784 1493 l 1
 784 170 l 1
 1094 170 l 1
 1094 0 l 1
 270 0 l 1
 270 170 l 1
EndSplineSet
Validated: 1
EndChar

StartChar: two
Encoding: 50 50 38
Width: 1233
Flags: W
HStem: 0 170<373 1059> 1350 170<344.575 733.15>
VStem: 842 207<908.95 1244.96>
DStem2: 152 170 373 170 0.679799 0.733398<150.236 1025.05>
LayerCount: 2
Fore
SplineSet
373 170 m 1
 1059 170 l 1
 1059 0 l 1
 152 0 l 1
 152 170 l 1
 276.667 301.333 385.667 417.333 479 518 c 0
 572.333 618.667 636.667 689.667 672 731 c 1
 738.667 812.333 783.667 878.167 807 928.5 c 0
 830.333 978.833 842 1030.33 842 1083 c 0
 842 1166.34 817.5 1231.67 768.5 1279 c 0
 719.5 1326.33 652.333 1350 567 1350 c 0
 506.333 1350 442.666 1339 376 1317 c 0
 309.333 1295 238.667 1261.67 164 1217 c 1
 164 1421 l 1
 232.667 1453.67 300.167 1478.33 366.5 1495 c 0
 432.833 1511.67 498.333 1520 563 1520 c 0
 709 1520 826.5 1481.17 915.5 1403.5 c 0
 1004.5 1325.83 1049 1224 1049 1098 c 0
 1049 1034 1034.17 970 1004.5 906 c 0
 974.833 842 926.667 771.333 860 694 c 0
 822.667 650.667 768.5 590.667 697.5 514 c 0
 626.5 437.333 518.333 322.667 373 170 c 1
EndSplineSet
Validated: 1
EndChar

StartChar: three
Encoding: 51 51 39
Width: 1233
Flags: W
HStem: -29 170<276.522 744.408> 715 166<395 741.562> 1350 170<284.983 745.969>
VStem: 844 200<975.86 1259.51> 879 200<268.147 589.118>
LayerCount: 2
Fore
SplineSet
776 799 m 1xf0
 874 773 949 726.833 1001 660.5 c 0
 1053 594.167 1079 511.333 1079 412 c 0
 1079 274.667 1032.83 166.833 940.5 88.5 c 0
 848.166 10.1667 720.333 -29 557 -29 c 0
 488.333 -29 418.333 -22.6667 347 -10 c 0
 275.667 2.66667 205.667 21 137 45 c 1
 137 246 l 1
 205 210.666 272 184.333 338 167 c 0
 404 149.667 469.667 141 535 141 c 0
 645.667 141 730.667 166 790 216 c 0
 849.333 266 879 338 879 432 c 0xe8
 879 518.667 849.333 587.5 790 638.5 c 0
 730.666 689.5 650.333 715 549 715 c 2
 395 715 l 1
 395 881 l 1
 549 881 l 2
 641.667 881 714 901.333 766 942 c 0
 818 982.667 844 1039.33 844 1112 c 0
 844 1188.67 819.833 1247.5 771.5 1288.5 c 0
 723.166 1329.5 654.333 1350 565 1350 c 0
 505.667 1350 444.333 1343.33 381 1330 c 0
 317.667 1316.67 251.333 1296.67 182 1270 c 1
 182 1456 l 1
 262.667 1477.33 334.5 1493.33 397.5 1504 c 0
 460.5 1514.67 516.334 1520 565 1520 c 0
 710.333 1520 826.5 1483.5 913.5 1410.5 c 0
 1000.5 1337.5 1044 1240.67 1044 1120 c 0
 1044 1038 1021.17 969.667 975.5 915 c 0
 929.833 860.333 863.333 821.667 776 799 c 1xf0
EndSplineSet
Validated: 1
EndChar

StartChar: four
Encoding: 52 52 40
Width: 1233
Flags: W
HStem: 0 21G<735 936> 356 164<264 735 936 1135> 1473 20G<689.315 936>
VStem: 735 201<0 356 520 1309>
LayerCount: 2
Fore
SplineSet
735 1309 m 1
 264 520 l 1
 735 520 l 1
 735 1309 l 1
702 1493 m 1
 936 1493 l 1
 936 520 l 1
 1135 520 l 1
 1135 356 l 1
 936 356 l 1
 936 0 l 1
 735 0 l 1
 735 356 l 1
 102 356 l 1
 102 547 l 1
 702 1493 l 1
EndSplineSet
Validated: 1
EndChar

StartChar: five
Encoding: 53 53 41
Width: 1233
Flags: W
HStem: -29 170<263.502 714.524> 817 170<392.547 708.71> 1323 170<391 963>
VStem: 207 184<956 1323> 866 203<289.706 665.313>
LayerCount: 2
Fore
SplineSet
207 1493 m 1
 963 1493 l 1
 963 1323 l 1
 391 1323 l 1
 391 956 l 1
 419.667 966.667 448.5 974.5 477.5 979.5 c 0
 506.5 984.5 535.667 987 565 987 c 0
 719.667 987 842.334 941.333 933 850 c 0
 1023.67 758.667 1069 635 1069 479 c 0
 1069 321.667 1021.5 197.667 926.5 107 c 0
 831.5 16.3333 701.667 -29 537 -29 c 0
 457.667 -29 385.167 -23.6667 319.5 -13 c 0
 253.833 -2.33333 195 13.6667 143 35 c 1
 143 240 l 1
 204.333 206.667 266 181.833 328 165.5 c 0
 390 149.167 453.333 141 518 141 c 0
 629.333 141 715.167 170.333 775.5 229 c 0
 835.833 287.667 866 371 866 479 c 0
 866 585.667 834.833 668.667 772.5 728 c 0
 710.166 787.333 623.333 817 512 817 c 0
 458 817 405.333 810.833 354 798.5 c 0
 302.667 786.167 253.667 767.667 207 743 c 1
 207 1493 l 1
EndSplineSet
Validated: 1
EndChar

StartChar: six
Encoding: 54 54 42
Width: 1233
Flags: W
HStem: -29 158<479.481 786.818> 829 158<479.397 785.393> 1350 170<526.242 928.88>
VStem: 133 186<780 1095.97> 901 199<256.038 702.596>
LayerCount: 2
Fore
SplineSet
991 1460 m 1
 991 1274 l 1
 949 1298.67 904.333 1317.5 857 1330.5 c 0
 809.665 1343.5 760.332 1350 709 1350 c 0
 581 1350 484 1301.83 418 1205.5 c 0
 352 1109.17 319 967.333 319 780 c 1
 351 846.667 395.333 897.834 452 933.5 c 0
 508.667 969.167 573.667 987 647 987 c 0
 791 987 902.5 942.833 981.5 854.5 c 0
 1060.5 766.167 1100 641 1100 479 c 0
 1100 317.667 1059.33 192.667 978 104 c 0
 896.666 15.3333 782.333 -29 635 -29 c 0
 461.667 -29 334.667 33.1667 254 157.5 c 0
 173.333 281.833 133 477.667 133 745 c 0
 133 997 181.5 1189.17 278.5 1321.5 c 0
 375.5 1453.83 516 1520 700 1520 c 0
 749.333 1520 798.667 1514.83 848 1504.5 c 0
 897.333 1494.17 945 1479.33 991 1460 c 1
631 829 m 0
 545 829 477.333 798 428 736 c 0
 378.667 674 354 588.333 354 479 c 256
 354 369.667 378.667 284 428 222 c 0
 477.333 160 545 129 631 129 c 0
 720.333 129 787.667 158.5 833 217.5 c 0
 878.333 276.5 901 363.667 901 479 c 0
 901 595 878.333 682.333 833 741 c 0
 787.666 799.667 720.333 829 631 829 c 0
EndSplineSet
Validated: 1
EndChar

StartChar: seven
Encoding: 55 55 43
Width: 1233
Flags: W
HStem: 0 21G<334 552.591> 1323 170<139 854>
DStem2: 334 0 545 0 0.354834 0.934929<74.8701 1421.43>
LayerCount: 2
Fore
SplineSet
139 1493 m 1
 1079 1493 l 1
 1079 1407 l 1
 545 0 l 1
 334 0 l 1
 854 1323 l 1
 139 1323 l 1
 139 1493 l 1
EndSplineSet
Validated: 1
EndChar

StartChar: eight
Encoding: 56 56 44
Width: 1233
Flags: W
HStem: -29 158<446.904 786.262> 709 159<453.708 780.584> 1364 156<455.334 777.798>
VStem: 131 203<244.858 596.031> 166 201<956.887 1275.17> 866 201<956.887 1275.48> 899 203<240.856 594.724>
LayerCount: 2
Fore
SplineSet
616 709 m 0xf2
 526 709 456.5 683.833 407.5 633.5 c 0
 358.5 583.167 334 512 334 420 c 256
 334 328 358.833 256.5 408.5 205.5 c 0
 458.167 154.5 527.333 129 616 129 c 0
 706.667 129 776.5 154.167 825.5 204.5 c 0
 874.5 254.833 899 326.667 899 420 c 0
 899 511.333 874.167 582.333 824.5 633 c 0
 774.833 683.667 705.333 709 616 709 c 0xf2
440 793 m 1
 354 815 286.833 856 238.5 916 c 0
 190.167 976 166 1048.33 166 1133 c 0
 166 1251.67 206.333 1345.83 287 1415.5 c 0
 367.667 1485.17 477.333 1520 616 1520 c 0
 755.333 1520 865.333 1485.17 946 1415.5 c 0
 1026.67 1345.83 1067 1251.66 1067 1133 c 0xec
 1067 1048.33 1042.83 975.999 994.5 916 c 0
 946.167 856 879 815 793 793 c 1
 893 771 969.5 726.667 1022.5 660 c 0
 1075.5 593.333 1102 507 1102 401 c 0
 1102 266.333 1059 161 973 85 c 0
 887 9 768 -29 616 -29 c 256
 464 -29 345.167 8.83334 259.5 84.5 c 0
 173.833 160.167 131 265 131 399 c 0
 131 505.667 157.5 592.5 210.5 659.5 c 0
 263.5 726.5 340 771 440 793 c 1
367 1114 m 0
 367 1034 388.333 973 431 931 c 0
 473.667 889 535.333 868 616 868 c 0
 697.333 868 759.333 889 802 931 c 0
 844.667 973 866 1034 866 1114 c 0
 866 1195.33 844.833 1257.33 802.5 1300 c 0
 760.167 1342.67 698 1364 616 1364 c 0
 535.333 1364 473.667 1342.5 431 1299.5 c 0
 388.333 1256.5 367 1194.67 367 1114 c 0
EndSplineSet
Validated: 1
EndChar

StartChar: nine
Encoding: 57 57 45
Width: 1233
Flags: W
HStem: -29 170<298.12 700.468> 504 158<441.274 747.485> 1362 158<439.912 747.401>
VStem: 127 199<786.051 1235.51> 907 187<395.025 711>
LayerCount: 2
Fore
SplineSet
596 662 m 0
 682 662 749.5 693 798.5 755 c 0
 847.5 817 872 902.667 872 1012 c 256
 872 1121.33 847.5 1207 798.5 1269 c 0
 749.5 1331 682 1362 596 1362 c 0
 506.667 1362 439.333 1332.5 394 1273.5 c 0
 348.667 1214.5 326 1127.33 326 1012 c 0
 326 896 348.5 808.667 393.5 750 c 0
 438.5 691.333 506 662 596 662 c 0
236 31 m 1
 236 217 l 1
 278 192.333 322.667 173.5 370 160.5 c 0
 417.333 147.5 466.667 141 518 141 c 0
 646 141 742.833 189.167 808.5 285.5 c 0
 874.167 381.833 907 523.667 907 711 c 1
 875.667 644.333 831.667 593.167 775 557.5 c 0
 718.333 521.833 653.333 504 580 504 c 0
 436 504 324.5 548.333 245.5 637 c 0
 166.5 725.667 127 851.334 127 1014 c 0
 127 1174.67 167.5 1299.17 248.5 1387.5 c 0
 329.5 1475.83 444 1520 592 1520 c 0
 765.333 1520 892.333 1457.67 973 1333 c 0
 1053.67 1208.33 1094 1012.33 1094 745 c 0
 1094 493.667 1045.5 301.833 948.5 169.5 c 0
 851.5 37.1666 710.667 -29 526 -29 c 0
 477.333 -29 428.333 -23.8333 379 -13.5 c 0
 329.667 -3.16667 282 11.6667 236 31 c 1
EndSplineSet
Validated: 1
EndChar

StartChar: colon
Encoding: 58 58 46
Width: 1233
Flags: W
HStem: 0 305<200 452> 760 303<200 452>
VStem: 200 252<0 305 760 1063>
LayerCount: 2
Fore
SplineSet
200 1063 m 5
 452 1063 l 5
 452 760 l 5
 200 760 l 5
 200 1063 l 5
200 305 m 5
 452 305 l 5
 452 0 l 5
 200 0 l 5
 200 305 l 5
EndSplineSet
Validated: 1
EndChar

StartChar: semicolon
Encoding: 59 59 47
Width: 1233
Flags: W
HStem: 760 303<200 452>
VStem: 200 252<96 303 760 1063>
LayerCount: 2
Fore
SplineSet
213 303 m 5
 465 303 l 5
 465 96 l 5
 268 -287 l 5
 114 -287 l 5
 213 96 l 5
 213 303 l 5
200 1063 m 5
 452 1063 l 5
 452 760 l 5
 200 760 l 5
 200 1063 l 5
EndSplineSet
Validated: 1
EndChar

StartChar: question
Encoding: 63 63 48
Width: 1233
Flags: W
HStem: 0 254<487 690> 1356 164<406.231 757.294>
VStem: 487 203<0 254 401 721.486> 838 202<1031.82 1279.85>
DStem2: 639 872 791 782 0.711046 0.703146<-144.186 319.549>
LayerCount: 2
Fore
SplineSet
684 401 m 1
 494 401 l 1
 494 555 l 2
 494 620.333 504.167 675.833 524.5 721.5 c 0
 544.833 767.167 583 817.334 639 872 c 2
 729 961 l 1
 770.333 1000.33 798.833 1034.67 814.5 1064 c 0
 830.167 1093.33 838 1124.33 838 1157 c 0
 838 1216.33 816.167 1264.33 772.5 1301 c 0
 728.833 1337.67 670.667 1356 598 1356 c 0
 546 1356 490.333 1344.5 431 1321.5 c 0
 371.667 1298.5 309.333 1264.33 244 1219 c 1
 244 1407 l 1
 306.667 1445 369.833 1473.33 433.5 1492 c 0
 497.167 1510.67 563.667 1520 633 1520 c 0
 757 1520 855.833 1488 929.5 1424 c 0
 1003.17 1360 1040 1274.33 1040 1167 c 0
 1040 1116.33 1028.83 1069.17 1006.5 1025.5 c 0
 984.167 981.833 941.667 929.333 879 868 c 2
 791 782 l 1
 745 738 715.667 702 703 674 c 0
 690.333 646 684 611.667 684 571 c 2
 684 524 l 1
 684 401 l 1
487 254 m 1
 690 254 l 1
 690 0 l 1
 487 0 l 1
 487 254 l 1
EndSplineSet
Validated: 1
EndChar

StartChar: at
Encoding: 64 64 49
Width: 1233
Flags: W
HStem: -319 143<547.075 997.219> 115 145<666.547 939.444> 829 146<666.547 939.283> 1253 142<499.133 882.914>
VStem: 27 149<238.615 861.962> 412 155<367.315 722.2> 1034 144<135 246 357.695 731.32 844 1095>
LayerCount: 2
Fore
SplineSet
1038 545 m 0
 1038 631 1016.67 699.833 974 751.5 c 0
 931.333 803.167 874.333 829 803 829 c 256
 731.667 829 674.5 803.167 631.5 751.5 c 0
 588.5 699.833 567 631 567 545 c 0
 567 458.333 588.5 389.166 631.5 337.5 c 0
 674.5 285.833 731.667 260 803 260 c 256
 874.333 260 931.333 285.833 974 337.5 c 0
 1016.67 389.167 1038 458.333 1038 545 c 0
1178 135 m 1
 1034 135 l 1
 1034 246 l 1
 1009.33 204 975.167 171.667 931.5 149 c 0
 887.833 126.333 838.667 115 784 115 c 0
 676.667 115 587.833 155.333 517.5 236 c 0
 447.167 316.667 412 419.667 412 545 c 256
 412 670.333 447.167 773.333 517.5 854 c 0
 587.833 934.667 676.667 975 784 975 c 0
 837.333 975 886.333 963.333 931 940 c 0
 975.667 916.667 1010 884.667 1034 844 c 1
 1034 907 l 2
 1034 1011 1004.67 1094.67 946 1158 c 0
 887.333 1221.33 809.667 1253 713 1253 c 0
 549 1253 418.5 1189.17 321.5 1061.5 c 0
 224.5 933.833 176 761 176 543 c 0
 176 323.667 231 149 341 19 c 0
 451 -111 597.333 -176 780 -176 c 0
 816 -176 852 -172.667 888 -166 c 0
 924 -159.333 961 -149 999 -135 c 1
 1047 -270 l 1
 1005 -286.667 963.5 -299 922.5 -307 c 0
 881.5 -315 841.667 -319 803 -319 c 0
 565 -319 376.167 -241.333 236.5 -86 c 0
 96.8333 69.3333 27 279 27 543 c 0
 27 803 89.6667 1010 215 1164 c 0
 340.333 1318 508.333 1395 719 1395 c 0
 858.333 1395 969.667 1350.67 1053 1262 c 0
 1136.33 1173.33 1178 1054.33 1178 905 c 2
 1178 135 l 1
EndSplineSet
Validated: 1
EndChar

StartChar: A
Encoding: 65 65 50
Width: 1233
Flags: W
HStem: 0 21G<147 349 882 1085> 656 170<349 882> 1358 164<443.944 787.386>
VStem: 147 202<0 656 826 1265.06> 882 203<0 656 826 1265.61>
LayerCount: 2
Fore
SplineSet
1085 920 m 2
 1085 0 l 1
 882 0 l 1
 882 656 l 1
 349 656 l 1
 349 0 l 1
 147 0 l 1
 147 920 l 2
 147 1072.67 156.5 1181.17 175.5 1245.5 c 0
 194.5 1309.83 227.33 1363 274 1405 c 0
 318 1444.33 368.333 1473.67 425 1493 c 0
 481.667 1512.33 545.333 1522 616 1522 c 0
 686 1522 749.333 1512.33 806 1493 c 0
 862.667 1473.67 913.333 1444.33 958 1405 c 0
 1004 1363.67 1036.67 1310.17 1056 1244.5 c 0
 1075.33 1178.83 1085 1070.67 1085 920 c 2
349 826 m 1
 882 826 l 1
 882 1012 l 2
 882 1084.67 880 1136.5 876 1167.5 c 0
 872 1198.5 865 1222.33 855 1239 c 0
 833.666 1278.33 802.833 1308 762.5 1328 c 0
 722.167 1348 673.333 1358 616 1358 c 0
 558 1358 509 1348 469 1328 c 0
 429 1308 398 1278.33 376 1239 c 0
 366 1222.33 359 1198.67 355 1168 c 0
 351 1137.33 349 1086 349 1014 c 2
 349 826 l 1
EndSplineSet
EndChar

StartChar: B
Encoding: 66 66 51
Width: 1233
Flags: W
HStem: 0 166<369 832.281> 713 164<369 800.209> 1327 166<369 805.209>
VStem: 166 203<166 713 877 1327> 881 204<955.189 1257.32> 934 203<261.09 604.351>
LayerCount: 2
Fore
SplineSet
369 713 m 1xf4
 369 166 l 1
 608 166 l 2
 725.333 166 809 186.5 859 227.5 c 0
 909 268.5 934 336 934 430 c 0
 934 527.333 907.667 598.833 855 644.5 c 0
 802.333 690.167 720 713 608 713 c 2
 369 713 l 1xf4
369 1327 m 1
 369 877 l 1
 604 877 l 2
 701.333 877 771.833 895.667 815.5 933 c 0
 859.167 970.333 881 1030.67 881 1114 c 0xf8
 881 1189.33 859.5 1243.67 816.5 1277 c 0
 773.5 1310.33 702.667 1327 604 1327 c 2
 369 1327 l 1
166 1493 m 1
 608 1493 l 2
 760.667 1493 878.334 1460 961 1394 c 0
 1043.67 1328 1085 1234.67 1085 1114 c 0xf8
 1085 1022.67 1063.17 950.667 1019.5 898 c 0
 975.833 845.333 910.333 812.333 823 799 c 1
 921 784.333 997.833 742.5 1053.5 673.5 c 0
 1109.17 604.5 1137 516.667 1137 410 c 0xf4
 1137 274.667 1092.67 172.5 1004 103.5 c 0
 915.333 34.5 783.333 0 608 0 c 2
 166 0 l 1
 166 1493 l 1
EndSplineSet
Validated: 1
EndChar

StartChar: C
Encoding: 67 67 52
Width: 1233
Flags: W
HStem: -29 164<561.25 946.009> 1356 164<561.76 945.362>
VStem: 139 211<406.349 1087.93>
LayerCount: 2
Fore
SplineSet
1073 53 m 1
 1021.67 25.6667 969 5.16667 915 -8.5 c 0
 861 -22.1667 803.667 -29 743 -29 c 0
 551.667 -29 403.167 38.6667 297.5 174 c 0
 191.833 309.333 139 499.667 139 745 c 0
 139 989 192.167 1179.17 298.5 1315.5 c 0
 404.833 1451.83 553 1520 743 1520 c 0
 803.667 1520 861 1513.17 915 1499.5 c 0
 969 1485.83 1021.67 1465.33 1073 1438 c 1
 1073 1231 l 1
 1023.67 1271.67 970.667 1302.67 914 1324 c 0
 857.333 1345.33 800.333 1356 743 1356 c 0
 611.666 1356 513.333 1305.33 448 1204 c 0
 382.667 1102.67 350 949.667 350 745 c 0
 350 541 382.667 388.333 448 287 c 0
 513.333 185.667 611.667 135 743 135 c 0
 801.667 135 859.167 145.667 915.5 167 c 0
 971.833 188.333 1024.33 219.333 1073 260 c 1
 1073 53 l 1
EndSplineSet
Validated: 1
EndChar

StartChar: D
Encoding: 68 68 53
Width: 1233
Flags: W
HStem: 0 166<340 679.722> 1327 166<340 679.722>
VStem: 137 203<166 1327> 893 213<403.039 1089.12>
LayerCount: 2
Fore
SplineSet
436 166 m 2
 606 166 724.667 207.833 792 291.5 c 0
 859.333 375.167 893 526.333 893 745 c 0
 893 965.667 859.5 1117.83 792.5 1201.5 c 0
 725.5 1285.17 606.667 1327 436 1327 c 2
 340 1327 l 1
 340 166 l 1
 436 166 l 2
440 1493 m 2
 668 1493 836 1432.33 944 1311 c 0
 1052 1189.67 1106 1001 1106 745 c 0
 1106 490.333 1052 302.5 944 181.5 c 0
 836 60.5 668 0 440 0 c 2
 137 0 l 1
 137 1493 l 1
 440 1493 l 2
EndSplineSet
Validated: 1
EndChar

StartChar: E
Encoding: 69 69 54
Width: 1233
Flags: W
HStem: 0 170<399 1102> 711 170<399 1053> 1323 170<399 1083>
VStem: 197 202<170 711 881 1323>
LayerCount: 2
Fore
SplineSet
197 1493 m 1
 1083 1493 l 1
 1083 1323 l 1
 399 1323 l 1
 399 881 l 1
 1053 881 l 1
 1053 711 l 1
 399 711 l 1
 399 170 l 1
 1102 170 l 1
 1102 0 l 1
 197 0 l 1
 197 1493 l 1
EndSplineSet
Validated: 1
EndChar

StartChar: F
Encoding: 70 70 55
Width: 1233
Flags: W
HStem: 0 21G<233 436> 713 170<436 1049> 1323 170<436 1112>
VStem: 233 203<0 713 883 1323>
LayerCount: 2
Fore
SplineSet
233 1493 m 1
 1112 1493 l 1
 1112 1323 l 1
 436 1323 l 1
 436 883 l 1
 1049 883 l 1
 1049 713 l 1
 436 713 l 1
 436 0 l 1
 233 0 l 1
 233 1493 l 1
EndSplineSet
Validated: 1
EndChar

StartChar: G
Encoding: 71 71 56
Width: 1233
Flags: W
HStem: -29 164<518.866 882.964> 600 166<694 911> 1356 164<525.66 904.309>
VStem: 102 211<400.602 1083.2> 911 193<169.621 600>
LayerCount: 2
Fore
SplineSet
1104 123 m 1
 1050 73 989.167 35.1667 921.5 9.5 c 0
 853.833 -16.1667 780.667 -29 702 -29 c 0
 512.667 -29 365.333 38.8333 260 174.5 c 0
 154.667 310.167 102 500.333 102 745 c 0
 102 989 155.333 1179.17 262 1315.5 c 0
 368.667 1451.83 517 1520 707 1520 c 0
 769.667 1520 829.667 1511.17 887 1493.5 c 0
 944.333 1475.83 999.667 1449 1053 1413 c 1
 1053 1206 l 1
 999 1257.34 943.667 1295.17 887 1319.5 c 0
 830.333 1343.83 770.333 1356 707 1356 c 0
 575.666 1356 477.166 1305.17 411.5 1203.5 c 0
 345.833 1101.83 313 949 313 745 c 0
 313 537.667 344.833 384.167 408.5 284.5 c 0
 472.167 184.833 570 135 702 135 c 0
 746.667 135 785.833 140.167 819.5 150.5 c 0
 853.167 160.833 883.667 177 911 199 c 1
 911 600 l 1
 694 600 l 1
 694 766 l 1
 1104 766 l 1
 1104 123 l 1
EndSplineSet
Validated: 1
EndChar

StartChar: H
Encoding: 72 72 57
Width: 1233
Flags: W
HStem: 0 21G<137 340 893 1096> 711 170<340 893> 1473 20G<137 340 893 1096>
VStem: 137 203<0 711 881 1493> 893 203<0 711 881 1493>
LayerCount: 2
Fore
SplineSet
137 1493 m 1
 340 1493 l 1
 340 881 l 5
 893 881 l 5
 893 1493 l 1
 1096 1493 l 1
 1096 0 l 1
 893 0 l 1
 893 711 l 5
 340 711 l 5
 340 0 l 1
 137 0 l 1
 137 1493 l 1
EndSplineSet
Validated: 1
EndChar

StartChar: I
Encoding: 73 73 58
Width: 1233
Flags: W
HStem: 0 170<201 514 717 1030> 1323 170<201 514 717 1030>
VStem: 514 203<170 1323>
LayerCount: 2
Fore
SplineSet
201 1493 m 1
 1030 1493 l 1
 1030 1323 l 1
 717 1323 l 1
 717 170 l 1
 1030 170 l 1
 1030 0 l 1
 201 0 l 1
 201 170 l 1
 514 170 l 1
 514 1323 l 1
 201 1323 l 1
 201 1493 l 1
EndSplineSet
Validated: 1
EndChar

StartChar: J
Encoding: 74 74 59
Width: 1233
Flags: W
HStem: -29 164<288.518 664.808> 1323 170<373 754>
VStem: 754 202<227.909 1323>
LayerCount: 2
Fore
SplineSet
109 61 m 1
 109 297 l 1
 169.667 243 232.333 202.5 297 175.5 c 0
 361.667 148.5 428.667 135 498 135 c 0
 593.333 135 659.833 159.833 697.5 209.5 c 0
 735.167 259.167 754 351.667 754 487 c 2
 754 1323 l 1
 373 1323 l 1
 373 1493 l 1
 956 1493 l 1
 956 487 l 2
 956 299 920.833 166 850.5 88 c 0
 780.167 10 662.667 -29 498 -29 c 0
 434 -29 370.333 -21.6667 307 -7 c 0
 243.667 7.66667 177.667 30.3333 109 61 c 1
EndSplineSet
Validated: 1
EndChar

StartChar: K
Encoding: 75 75 60
Width: 1233
Flags: W
HStem: 0 21G<137 340 967.979 1225> 1473 20G<137 340 951.994 1208>
VStem: 137 203<0 584 829 1493>
DStem2: 340 829 494 748 0.690608 0.723229<0 47.7721 237.259 915.998>
LayerCount: 2
Fore
SplineSet
137 1493 m 1
 340 1493 l 1
 340 829 l 1
 971 1493 l 1
 1208 1493 l 1
 627 883 l 1
 1225 0 l 1
 981 0 l 1
 494 748 l 1
 340 584 l 1
 340 0 l 1
 137 0 l 1
 137 1493 l 1
EndSplineSet
Validated: 1
EndChar

StartChar: L
Encoding: 76 76 61
Width: 1233
Flags: W
HStem: 0 170<418 1139> 1473 20G<215 418>
VStem: 215 203<170 1493>
LayerCount: 2
Fore
SplineSet
215 1493 m 1
 418 1493 l 1
 418 170 l 1
 1139 170 l 1
 1139 0 l 1
 215 0 l 1
 215 1493 l 1
EndSplineSet
Validated: 1
EndChar

StartChar: M
Encoding: 77 77 62
Width: 1233
Flags: W
HStem: 0 21G<86 272 958 1145> 1473 20G<86 362.789 867.158 1145>
VStem: 86 186<0 1319> 958 187<0 1319>
DStem2: 356 1493 272 1319 0.321277 -0.946985<137.788 802.598> 614 733 692 532 0.320197 0.947351<0 665.295>
LayerCount: 2
Fore
SplineSet
86 1493 m 1
 356 1493 l 1
 614 733 l 1
 874 1493 l 1
 1145 1493 l 1
 1145 0 l 1
 958 0 l 1
 958 1319 l 1
 692 532 l 1
 539 532 l 1
 272 1319 l 1
 272 0 l 1
 86 0 l 1
 86 1493 l 1
EndSplineSet
Validated: 1
EndChar

StartChar: N
Encoding: 78 78 63
Width: 1233
Flags: W
HStem: 0 21G<139 334 829.798 1094> 1473 20G<139 403.202 899 1094>
VStem: 139 195<0 1229> 899 195<264 1493>
DStem2: 395 1493 334 1229 0.379424 -0.925223<221.114 1328.33>
LayerCount: 2
Fore
SplineSet
139 1493 m 1
 395 1493 l 1
 899 264 l 1
 899 1493 l 1
 1094 1493 l 1
 1094 0 l 1
 838 0 l 1
 334 1229 l 1
 334 0 l 1
 139 0 l 1
 139 1493 l 1
EndSplineSet
Validated: 1
EndChar

StartChar: O
Encoding: 79 79 64
Width: 1233
Flags: W
HStem: -29 164<470.749 761.68> 1356 164<470.988 761.68>
VStem: 117 211<348.498 1141.74> 905 211<351.696 1141.74>
LayerCount: 2
Fore
SplineSet
905 745 m 256
 905 964.333 882.5 1121 837.5 1215 c 0
 792.5 1309 718.667 1356 616 1356 c 0
 514 1356 440.5 1309 395.5 1215 c 0
 350.5 1121 328 964.333 328 745 c 0
 328 526.333 350.5 370 395.5 276 c 0
 440.5 182 514 135 616 135 c 0
 718.667 135 792.5 181.833 837.5 275.5 c 0
 882.5 369.167 905 525.667 905 745 c 256
1116 745 m 0
 1116 485 1074.83 291 992.5 163 c 0
 910.167 35 784.667 -29 616 -29 c 256
 447.333 -29 322 34.6667 240 162 c 0
 158 289.333 117 483.667 117 745 c 0
 117 1005.67 158.167 1200 240.5 1328 c 0
 322.833 1456 448 1520 616 1520 c 0
 784.667 1520 910.167 1456 992.5 1328 c 0
 1074.83 1200 1116 1005.67 1116 745 c 0
EndSplineSet
Validated: 1
EndChar

StartChar: P
Encoding: 80 80 65
Width: 1233
Flags: W
HStem: 0 21G<197 399> 600 166<399 810.401> 1327 166<399 809.849>
VStem: 197 202<0 600 766 1327> 930 211<880.22 1213.02>
LayerCount: 2
Fore
SplineSet
399 1327 m 1
 399 766 l 1
 633 766 l 2
 726.333 766 799.167 790.667 851.5 840 c 0
 903.833 889.333 930 958.333 930 1047 c 256
 930 1135.67 904 1204.5 852 1253.5 c 0
 800 1302.5 727 1327 633 1327 c 2
 399 1327 l 1
197 1493 m 1
 633 1493 l 2
 799.667 1493 926 1455.17 1012 1379.5 c 0
 1098 1303.83 1141 1193 1141 1047 c 0
 1141 899.666 1098.17 788.333 1012.5 713 c 0
 926.833 637.667 800.333 600 633 600 c 2
 399 600 l 1
 399 0 l 1
 197 0 l 1
 197 1493 l 1
EndSplineSet
Validated: 1
EndChar

StartChar: Q
Encoding: 81 81 66
Width: 1233
Flags: W
HStem: -29 164<473.82 667.165> 1356 164<470.988 761.68>
VStem: 117 211<349.157 1141.74> 905 211<347.568 1141.74>
DStem2: 840 20 655 -27 0.693642 -0.72032<0 242.881>
LayerCount: 2
Fore
SplineSet
655 -27 m 1
 650.333 -27 643.667 -27.3333 635 -28 c 0
 626.333 -28.6667 619.333 -29 614 -29 c 0
 447.333 -29 322.833 35 240.5 163 c 0
 158.167 291 117 485 117 745 c 0
 117 1005.67 158.167 1200 240.5 1328 c 0
 322.833 1456 448 1520 616 1520 c 0
 784.667 1520 910.167 1456 992.5 1328 c 0
 1074.83 1200 1116 1005.67 1116 745 c 0
 1116 549 1093.17 391.167 1047.5 271.5 c 0
 1001.83 151.833 932.667 68 840 20 c 1
 1040 -170 l 1
 889 -270 l 1
 655 -27 l 1
905 745 m 256
 905 964.333 882.5 1121 837.5 1215 c 0
 792.5 1309 718.667 1356 616 1356 c 0
 514 1356 440.5 1309 395.5 1215 c 0
 350.5 1121 328 964.333 328 745 c 0
 328 526.333 350.5 370 395.5 276 c 0
 440.5 182 514 135 616 135 c 0
 718.667 135 792.5 181.833 837.5 275.5 c 0
 882.5 369.167 905 525.667 905 745 c 256
EndSplineSet
Validated: 1
EndChar

StartChar: R
Encoding: 82 82 67
Width: 1233
Flags: W
HStem: 0 21G<143 346 1006.56 1233> 631 166<346 695.62> 1327 166<346 745.002>
VStem: 143 203<0 631 797 1327> 854 213<893.74 1221.82>
DStem2: 1233 0 838 377 0.445457 -0.895303<-758.774 -96.6642>
LayerCount: 2
Fore
SplineSet
760 705 m 1
 812 691.667 856.333 666.5 893 629.5 c 0
 929.668 592.5 975.335 518.667 1030 408 c 2
 1233 0 l 1
 1016 0 l 1
 838 377 l 2
 786.667 484.333 740.5 553.5 699.5 584.5 c 0
 658.5 615.5 605 631 539 631 c 2
 346 631 l 1
 346 0 l 1
 143 0 l 1
 143 1493 l 1
 559 1493 l 2
 723 1493 848.667 1456 936 1382 c 0
 1023.33 1308 1067 1201 1067 1061 c 0
 1067 962.333 1040.17 881.833 986.5 819.5 c 0
 932.833 757.167 857.333 719 760 705 c 1
346 1327 m 1
 346 797 l 1
 567 797 l 2
 663.667 797 735.667 818.667 783 862 c 0
 830.333 905.333 854 971.667 854 1061 c 0
 854 1147 828.833 1212.83 778.5 1258.5 c 0
 728.167 1304.17 655 1327 559 1327 c 2
 346 1327 l 1
EndSplineSet
Validated: 1
EndChar

StartChar: S
Encoding: 83 83 68
Width: 1233
Flags: W
HStem: -29 164<347.113 781.097> 1356 164<447.655 868.616>
VStem: 139 193<970.779 1249.96> 905 193<246.3 548.807>
DStem2: 696 848 535 682 0.974239 -0.225518<-324.512 211.45>
LayerCount: 2
Fore
SplineSet
1012 1442 m 1
 1012 1237 l 1
 950.667 1276.33 889.167 1306 827.5 1326 c 0
 765.833 1346 703.667 1356 641 1356 c 0
 545.667 1356 470.333 1333.83 415 1289.5 c 0
 359.667 1245.17 332 1185.33 332 1110 c 0
 332 1044 350.167 993.667 386.5 959 c 0
 422.834 924.333 490.667 895.333 590 872 c 1
 696 848 l 1
 836 815.333 938 764 1002 694 c 0
 1066 624 1098 528.667 1098 408 c 0
 1098 266 1054 157.667 966 83 c 0
 878 8.33333 750 -29 582 -29 c 0
 512 -29 441.667 -21.5 371 -6.5 c 0
 300.333 8.5 229.333 31 158 61 c 1
 158 276 l 1
 234.667 227.333 307.167 191.667 375.5 169 c 0
 443.833 146.333 512.667 135 582 135 c 0
 684 135 763.333 157.833 820 203.5 c 0
 876.667 249.167 905 313 905 395 c 0
 905 469.667 885.5 526.667 846.5 566 c 0
 807.5 605.333 739.667 635.667 643 657 c 1
 535 682 l 1
 396.333 713.333 295.667 760.667 233 824 c 0
 170.333 887.333 139 972.333 139 1079 c 0
 139 1212.33 183.833 1319.17 273.5 1399.5 c 0
 363.167 1479.83 482.333 1520 631 1520 c 0
 688.333 1520 748.667 1513.5 812 1500.5 c 0
 875.333 1487.5 942 1468 1012 1442 c 1
EndSplineSet
Validated: 1
EndChar

StartChar: T
Encoding: 84 84 69
Width: 1233
Flags: W
HStem: 0 21G<516 719> 1323 170<47 516 719 1186>
VStem: 516 203<0 1323>
LayerCount: 2
Fore
SplineSet
47 1493 m 1
 1186 1493 l 1
 1186 1323 l 1
 719 1323 l 1
 719 0 l 1
 516 0 l 1
 516 1323 l 1
 47 1323 l 1
 47 1493 l 1
EndSplineSet
Validated: 1
EndChar

StartChar: U
Encoding: 85 85 70
Width: 1233
Flags: W
HStem: -29 164<444.614 788.057> 1473 20G<147 350 883 1085>
VStem: 147 203<227.39 1493> 883 202<227.937 1493>
LayerCount: 2
Fore
SplineSet
147 573 m 2
 147 1493 l 1
 350 1493 l 1
 350 481 l 2
 350 408.333 352 356.5 356 325.5 c 0
 360 294.5 367 270.667 377 254 c 1
 398.334 214.667 429.167 185 469.5 165 c 0
 509.833 145 558.667 135 616 135 c 0
 674 135 723 145 763 165 c 0
 803 185 834 214.667 856 254 c 0
 866 270.667 873 294.333 877 325 c 0
 881 355.667 883 407 883 479 c 2
 883 1493 l 1
 1085 1493 l 1
 1085 573 l 2
 1085 420.333 1075.5 311.833 1056.5 247.5 c 0
 1037.5 183.167 1004.67 130 958 88 c 0
 914 48.6667 863.667 19.3333 807 0 c 0
 750.333 -19.3333 686.667 -29 616 -29 c 0
 546 -29 482.667 -19.3333 426 0 c 0
 369.333 19.3333 318.667 48.6667 274 88 c 0
 228 129.333 195.333 182.833 176 248.5 c 0
 156.667 314.167 147 422.333 147 573 c 2
EndSplineSet
Validated: 1
EndChar

StartChar: V
Encoding: 86 86 71
Width: 1233
Flags: W
HStem: 0 21G<488.146 744.854> 1473 20G<57 271.291 961.694 1176>
LayerCount: 2
Fore
SplineSet
616 170 m 1
 967 1493 l 1
 1176 1493 l 1
 739 0 l 1
 494 0 l 1
 57 1493 l 1
 266 1493 l 1
 616 170 l 1
EndSplineSet
Validated: 1
EndChar

StartChar: W
Encoding: 87 87 72
Width: 1233
Flags: W
HStem: 0 21G<220.013 418.555 814.423 1012.99> 1473 20G<0 199.36 1033.64 1233>
VStem: 0 197<1397.02 1493> 1036 197<1397.02 1493>
DStem2: 340 281 414 0 0.222049 0.975036<0 652.157> 721 1083 616 887 0.223093 -0.974797<167.635 822.109>
LayerCount: 2
Fore
SplineSet
0 1493 m 1
 197 1493 l 1
 340 281 l 1
 510 1083 l 1
 721 1083 l 1
 893 279 l 1
 1036 1493 l 1
 1233 1493 l 1
 1010 0 l 1
 819 0 l 1
 616 887 l 1
 414 0 l 1
 223 0 l 1
 0 1493 l 1
EndSplineSet
Validated: 1
EndChar

StartChar: X
Encoding: 88 88 73
Width: 1233
Flags: W
HStem: 0 21G<18 248.286 985.616 1214> 1473 20G<86 314.652 953.135 1182>
DStem2: 18 0 236 0 0.535227 0.844708<116.679 871.242 1113.67 1768.01> 303 1493 86 1493 0.520872 -0.853635<0 651.442 896.436 1635.96>
LayerCount: 2
Fore
SplineSet
86 1493 m 1
 303 1493 l 1
 631 930 l 1
 965 1493 l 1
 1182 1493 l 1
 735 791 l 1
 1214 0 l 1
 997 0 l 1
 631 643 l 1
 236 0 l 1
 18 0 l 1
 518 791 l 1
 86 1493 l 1
EndSplineSet
Validated: 1
EndChar

StartChar: Y
Encoding: 89 89 74
Width: 1233
Flags: W
HStem: 0 21G<514 717> 1473 20G<37 263.047 967.983 1196>
VStem: 514 203<0 670>
DStem2: 252 1493 37 1493 0.501451 -0.865186<0 752.686> 616 834 717 670 0.503022 0.864274<0 752.153>
LayerCount: 2
Fore
SplineSet
37 1493 m 1
 252 1493 l 1
 616 834 l 1
 979 1493 l 1
 1196 1493 l 1
 717 670 l 1
 717 0 l 1
 514 0 l 1
 514 670 l 1
 37 1493 l 1
EndSplineSet
Validated: 1
EndChar

StartChar: Z
Encoding: 90 90 75
Width: 1233
Flags: W
HStem: 0 170<367 1169> 1323 170<178 915>
DStem2: 156 154 367 170 0.555029 0.831831<130.42 1393.68>
LayerCount: 2
Fore
SplineSet
178 1493 m 1
 1147 1493 l 1
 1147 1339 l 1
 367 170 l 1
 1169 170 l 1
 1169 0 l 1
 156 0 l 1
 156 154 l 1
 915 1323 l 1
 178 1323 l 1
 178 1493 l 1
EndSplineSet
Validated: 1
EndChar

StartChar: bracketleft
Encoding: 91 91 76
Width: 1233
Flags: W
HStem: 0 143<706 946> 1413 143<706 946>
VStem: 522 424<0 143 1413 1556> 522 184<143 1413>
LayerCount: 2
Fore
SplineSet
522 1556 m 1xe0
 946 1556 l 1
 946 1413 l 1xe0
 706 1413 l 1
 706 143 l 1xd0
 946 143 l 1
 946 0 l 1
 522 0 l 1
 522 1556 l 1xe0
EndSplineSet
Validated: 1
EndChar

StartChar: backslash
Encoding: 92 92 77
Width: 1233
Flags: W
HStem: 1473 20G<102 302.34>
DStem2: 293 1493 102 1493 0.423593 -0.905853<0 1777.01>
LayerCount: 2
Fore
SplineSet
293 1493 m 1
 1079 -190 l 1
 889 -190 l 1
 102 1493 l 1
 293 1493 l 1
EndSplineSet
Validated: 1
EndChar

StartChar: bracketright
Encoding: 93 93 78
Width: 1233
Flags: W
HStem: 0 143<287 527> 1413 143<287 527>
VStem: 287 424<0 143 1413 1556> 527 184<143 1413>
LayerCount: 2
Fore
SplineSet
711 1556 m 1xe0
 711 0 l 1
 287 0 l 1
 287 143 l 1xe0
 527 143 l 1
 527 1413 l 1xd0
 287 1413 l 1
 287 1556 l 1
 711 1556 l 1xe0
EndSplineSet
Validated: 1
EndChar

StartChar: asciicircum
Encoding: 94 94 79
Width: 1233
Flags: W
HStem: 936 557
LayerCount: 2
Fore
SplineSet
705 1493 m 1
 1161 936 l 1
 983 936 l 1
 616 1331 l 1
 250 936 l 1
 72 936 l 1
 528 1493 l 1
 705 1493 l 1
EndSplineSet
Validated: 1
EndChar

StartChar: underscore
Encoding: 95 95 80
Width: 1233
Flags: W
HStem: 0 164<88 1145>
LayerCount: 2
Fore
SplineSet
1145 164 m 1
 1145 0 l 1
 88 0 l 1
 88 164 l 1
 1145 164 l 1
EndSplineSet
Validated: 1
EndChar

StartChar: grave
Encoding: 96 96 81
Width: 1233
Flags: W
HStem: 1262 376
VStem: 327 529
LayerCount: 2
Fore
SplineSet
575 1638 m 1
 856 1262 l 1
 652 1262 l 1
 327 1638 l 1
 575 1638 l 1
EndSplineSet
Validated: 1
EndChar

StartChar: a
Encoding: 97 97 82
Width: 1233
Flags: W
HStem: -29 154<392.956 716.049> 0 21G<874 1059> 563 144<419.161 874> 991 156<348.311 785.022>
VStem: 133 184<199.305 472.483> 874 185<0 166 300.235 563 707 902.89>
LayerCount: 2
Fore
SplineSet
702 563 m 1xbc
 641 563 l 2
 533.667 563 452.833 544.167 398.5 506.5 c 0
 344.167 468.833 317 412.666 317 338 c 0
 317 270.667 337.333 218.333 378 181 c 0
 418.667 143.667 475 125 547 125 c 0
 648.333 125 728 160.167 786 230.5 c 0
 844 300.833 873.333 398 874 522 c 1
 874 563 l 1
 702 563 l 1xbc
1059 639 m 2
 1059 0 l 1
 874 0 l 1x7c
 874 166 l 1
 834.667 99.3333 785.167 50.1667 725.5 18.5 c 0
 665.833 -13.1667 593.333 -29 508 -29 c 0
 394 -29 303 3.16667 235 67.5 c 0
 167 131.833 133 218 133 326 c 0
 133 450.667 174.833 545.333 258.5 610 c 0
 342.167 674.667 465 707 627 707 c 2
 874 707 l 1
 874 736 l 1
 873.333 825.333 850.667 890.167 806 930.5 c 0
 761.333 970.833 690 991 592 991 c 0
 529.333 991 466 982 402 964 c 0
 338 946 275.667 919.667 215 885 c 1
 215 1069 l 1
 283 1095 348.167 1114.5 410.5 1127.5 c 0
 472.834 1140.5 533.334 1147 592 1147 c 0
 684.667 1147 763.834 1133.33 829.5 1106 c 0
 895.168 1078.67 948.334 1037.67 989 983 c 0
 1014.33 949.667 1032.33 908.5 1043 859.5 c 0
 1053.67 810.5 1059 737 1059 639 c 2
EndSplineSet
Validated: 1
EndChar

StartChar: b
Encoding: 98 98 83
Width: 1233
Flags: W
HStem: -29 156<505.598 790.819> 0 21G<193 377> 991 156<504.904 791.544>
VStem: 193 184<0 141 285.895 832.745 977 1556> 918 194<281.613 835.191>
LayerCount: 2
Fore
SplineSet
918 559 m 256xb8
 918 701.667 895.333 809.334 850 882 c 0
 804.667 954.667 737.667 991 649 991 c 0
 559.667 991 492 954.5 446 881.5 c 0
 400 808.5 377 701 377 559 c 0
 377 417.667 400 310.333 446 237 c 0
 492 163.667 559.667 127 649 127 c 0
 737.667 127 804.667 163.333 850 236 c 0
 895.333 308.667 918 416.333 918 559 c 256xb8
377 977 m 1
 406.333 1031.67 446.833 1073.67 498.5 1103 c 0
 550.167 1132.33 610 1147 678 1147 c 0
 812.667 1147 918.667 1095.17 996 991.5 c 0
 1073.33 887.833 1112 745 1112 563 c 0
 1112 378.333 1073.17 233.5 995.5 128.5 c 0
 917.833 23.5 811.333 -29 676 -29 c 0xb8
 609.333 -29 550.5 -14.5 499.5 14.5 c 0
 448.5 43.5 407.667 85.6667 377 141 c 1
 377 0 l 1
 193 0 l 1x78
 193 1556 l 1
 377 1556 l 1
 377 977 l 1
EndSplineSet
Validated: 1
EndChar

StartChar: c
Encoding: 99 99 84
Width: 1233
Flags: W
HStem: -29 156<562.929 953.718> 991 156<562.597 949.158>
VStem: 195 194<319.41 798.923>
LayerCount: 2
Fore
SplineSet
1061 57 m 1
 1011.67 28.3333 960.832 6.83333 908.5 -7.5 c 0
 856.167 -21.8333 802.667 -29 748 -29 c 0
 574.666 -29 439.166 23 341.5 127 c 0
 243.833 231 195 375 195 559 c 256
 195 743 243.833 887 341.5 991 c 0
 439.167 1095 574.667 1147 748 1147 c 0
 802 1147 854.667 1140 906 1126 c 0
 957.333 1112 1009 1090.33 1061 1061 c 1
 1061 868 l 1
 1012.33 911.333 963.5 942.667 914.5 962 c 0
 865.5 981.333 810 991 748 991 c 0
 632.667 991 544 953.667 482 879 c 0
 420 804.333 389 697.667 389 559 c 0
 389 421 420.167 314.5 482.5 239.5 c 0
 544.833 164.5 633.333 127 748 127 c 0
 812 127 869.333 136.833 920 156.5 c 0
 970.667 176.167 1017.67 206.667 1061 248 c 1
 1061 57 l 1
EndSplineSet
Validated: 1
EndChar

StartChar: d
Encoding: 100 100 85
Width: 1233
Flags: W
HStem: -29 156<444.181 727.861> 0 21G<858 1042> 991 156<444.411 730.038>
VStem: 123 194<281.613 835.19> 858 184<0 141 285.896 832.745 977 1556>
LayerCount: 2
Fore
SplineSet
858 977 m 1xb8
 858 1556 l 1
 1042 1556 l 1
 1042 0 l 1
 858 0 l 1x78
 858 141 l 1
 827.333 85.6667 786.5 43.5 735.5 14.5 c 0
 684.5 -14.5 625.667 -29 559 -29 c 0
 423.667 -29 317.167 23.5 239.5 128.5 c 0
 161.833 233.5 123 378.333 123 563 c 0
 123 745 162 887.833 240 991.5 c 0
 318 1095.17 424.333 1147 559 1147 c 0
 626.333 1147 685.667 1132.5 737 1103.5 c 0
 788.333 1074.5 828.667 1032.33 858 977 c 1xb8
317 559 m 256
 317 416.333 339.667 308.667 385 236 c 0
 430.333 163.333 497.333 127 586 127 c 256xb8
 674.667 127 742.167 163.667 788.5 237 c 0
 834.833 310.333 858 417.667 858 559 c 0
 858 701 834.833 808.5 788.5 881.5 c 0
 742.167 954.5 674.667 991 586 991 c 256
 497.333 991 430.333 954.667 385 882 c 0
 339.667 809.333 317 701.667 317 559 c 256
EndSplineSet
Validated: 1
EndChar

StartChar: e
Encoding: 101 101 86
Width: 1233
Flags: W
HStem: -29 156<485.092 915.818> 516 143<322 928> 991 156<478.677 805.037>
VStem: 123 192<301.562 516 659 805.559> 928 184<660 854.836>
LayerCount: 2
Fore
SplineSet
1112 606 m 2
 1112 516 l 1
 315 516 l 1
 315 510 l 2
 315 388 346.833 293.667 410.5 227 c 0
 474.167 160.333 564 127 680 127 c 0
 738.667 127 800 136.333 864 155 c 0
 928 173.667 996.333 202 1069 240 c 1
 1069 57 l 1
 999 28.3333 931.5 6.83333 866.5 -7.5 c 0
 801.5 -21.8333 738.667 -29 678 -29 c 0
 504 -29 368 23.1667 270 127.5 c 0
 172 231.833 123 375.667 123 559 c 0
 123 737.667 171 880.334 267 987 c 0
 363 1093.67 491 1147 651 1147 c 0
 793.667 1147 906.167 1098.67 988.5 1002 c 0
 1070.83 905.333 1112 773.333 1112 606 c 2
928 660 m 1
 925.333 768 899.833 850.167 851.5 906.5 c 0
 803.167 962.833 733.667 991 643 991 c 0
 554.333 991 481.333 961.667 424 903 c 0
 366.667 844.333 332.667 763 322 659 c 1
 928 660 l 1
EndSplineSet
Validated: 1
EndChar

StartChar: f
Encoding: 102 102 87
Width: 1233
Flags: W
HStem: 0 21G<494 678> 977 143<195 494 678 1063> 1403 153<717.719 1063>
VStem: 494 184<0 977 1120 1361.22>
LayerCount: 2
Fore
SplineSet
1063 1556 m 1
 1063 1403 l 1
 854 1403 l 2
 788 1403 742.167 1389.5 716.5 1362.5 c 0
 690.833 1335.5 678 1287.67 678 1219 c 2
 678 1120 l 1
 1063 1120 l 1
 1063 977 l 1
 678 977 l 1
 678 0 l 1
 494 0 l 1
 494 977 l 1
 195 977 l 1
 195 1120 l 1
 494 1120 l 1
 494 1198 l 2
 494 1320.67 522.167 1411 578.5 1469 c 0
 634.833 1527 722.667 1556 842 1556 c 2
 1063 1556 l 1
EndSplineSet
Validated: 1
EndChar

StartChar: g
Encoding: 103 103 88
Width: 1233
Flags: W
HStem: -440 147<356.117 748.067> -8 153<448.61 733.759> 991 156<448.147 733.845>
VStem: 123 194<306.173 831.926> 858 184<-172.898 178 298.285 839.689 971 1116>
LayerCount: 2
Fore
SplineSet
858 569 m 0
 858 707 835.5 811.833 790.5 883.5 c 0
 745.5 955.167 680 991 594 991 c 0
 504 991 435.333 955.167 388 883.5 c 0
 340.667 811.833 317 707 317 569 c 256
 317 431 340.833 325.833 388.5 253.5 c 0
 436.167 181.167 505.333 145 596 145 c 0
 680.667 145 745.5 181.333 790.5 254 c 0
 835.5 326.667 858 431.667 858 569 c 0
1042 72 m 2
 1042 -96 1002.33 -223.333 923 -310 c 0
 843.667 -396.667 727 -440 573 -440 c 0
 522.333 -440 469.333 -435.333 414 -426 c 0
 358.667 -416.667 303.333 -403 248 -385 c 1
 248 -203 l 1
 313.333 -233.667 372.667 -256.333 426 -271 c 0
 479.334 -285.667 528.334 -293 573 -293 c 0
 672.333 -293 744.667 -266 790 -212 c 0
 835.333 -158 858 -72.3333 858 45 c 2
 858 53 l 1
 858 178 l 1
 828.667 115.333 788.667 68.6667 738 38 c 0
 687.333 7.33333 625.667 -8 553 -8 c 0
 422.333 -8 318 44.3333 240 149 c 0
 162 253.667 123 393.667 123 569 c 0
 123 745 162 885.333 240 990 c 0
 318 1094.67 422.333 1147 553 1147 c 0
 625 1147 686 1132.67 736 1104 c 0
 786 1075.33 826.667 1031 858 971 c 1
 858 1116 l 1
 1042 1116 l 1
 1042 72 l 2
EndSplineSet
Validated: 1
EndChar

StartChar: h
Encoding: 104 104 89
Width: 1233
Flags: W
HStem: 0 21G<195 379 866 1051> 987 160<520.322 786.673>
VStem: 195 184<0 855.048 952 1556> 866 185<0 903.653>
LayerCount: 2
Fore
SplineSet
1051 694 m 2
 1051 0 l 1
 866 0 l 1
 866 694 l 2
 866 794.667 848.333 868.667 813 916 c 0
 777.665 963.333 722.332 987 647 987 c 0
 561 987 494.833 956.5 448.5 895.5 c 0
 402.167 834.5 379 747 379 633 c 2
 379 0 l 1
 195 0 l 1
 195 1556 l 1
 379 1556 l 1
 379 952 l 1
 411.667 1016 456 1064.5 512 1097.5 c 0
 568 1130.5 634.333 1147 711 1147 c 0
 825 1147 910.167 1109.5 966.5 1034.5 c 0
 1022.83 959.5 1051 846 1051 694 c 2
EndSplineSet
Validated: 1
EndChar

StartChar: i
Encoding: 105 105 90
Width: 1233
Flags: W
HStem: 0 143<178 543 727 1092> 977 143<256 543> 1323 233<543 727>
VStem: 543 184<143 977 1323 1556>
LayerCount: 2
Fore
SplineSet
256 1120 m 1
 727 1120 l 1
 727 143 l 1
 1092 143 l 1
 1092 0 l 1
 178 0 l 1
 178 143 l 1
 543 143 l 1
 543 977 l 1
 256 977 l 1
 256 1120 l 1
543 1556 m 1
 727 1556 l 1
 727 1323 l 1
 543 1323 l 1
 543 1556 l 1
EndSplineSet
Validated: 1
EndChar

StartChar: j
Encoding: 106 106 91
Width: 1233
Flags: W
HStem: -426 156<186 539.839> 977 143<283 600> 1323 233<600 784>
VStem: 600 184<-206.515 977 1323 1556>
LayerCount: 2
Fore
SplineSet
600 -20 m 2
 600 977 l 1
 283 977 l 1
 283 1120 l 1
 784 1120 l 1
 784 -20 l 2
 784 -150 754.167 -250.167 694.5 -320.5 c 0
 634.833 -390.833 550 -426 440 -426 c 2
 186 -426 l 1
 186 -270 l 1
 420 -270 l 2
 480 -270 525 -249.167 555 -207.5 c 0
 585 -165.833 600 -103.333 600 -20 c 2
600 1556 m 1
 784 1556 l 1
 784 1323 l 1
 600 1323 l 1
 600 1556 l 1
EndSplineSet
Validated: 1
EndChar

StartChar: k
Encoding: 107 107 92
Width: 1233
Flags: W
HStem: 0 21G<236 426 962.675 1202> 1100 20G<888.226 1133>
VStem: 236 190<0 449 655 1556>
DStem2: 426 655 563 578 0.725332 0.688399<0 46.3638 222.54 670.441> 692 698 563 578 0.589959 -0.807433<20.7874 731.727>
LayerCount: 2
Fore
SplineSet
236 1556 m 1
 426 1556 l 1
 426 655 l 1
 909 1120 l 1
 1133 1120 l 1
 692 698 l 1
 1202 0 l 1
 977 0 l 1
 563 578 l 1
 426 449 l 1
 426 0 l 1
 236 0 l 1
 236 1556 l 1
EndSplineSet
Validated: 1
EndChar

StartChar: l
Encoding: 108 108 93
Width: 1233
Flags: W
HStem: 0 156<700.74 1034> 1423 144<160 455>
VStem: 455 184<220.985 1423>
LayerCount: 2
Fore
SplineSet
639 406 m 2
 639 323.333 654.167 261 684.5 219 c 0
 714.833 177 759.667 156 819 156 c 2
 1034 156 l 1
 1034 0 l 1
 801 0 l 2
 691 0 605.833 35.3333 545.5 106 c 0
 485.167 176.667 455 276.667 455 406 c 2
 455 1423 l 1
 160 1423 l 1
 160 1567 l 1
 639 1567 l 1
 639 406 l 2
EndSplineSet
Validated: 1
EndChar

StartChar: m
Encoding: 109 109 94
Width: 1233
Flags: W
HStem: 0 21G<109 276 537 705 967 1135> 993 154<340.757 501.272 748.334 933.126> 1100 20G<109 276>
VStem: 109 167<0 956.95 1024 1120> 537 168<0 935.206> 967 168<0 933.66>
LayerCount: 2
Fore
SplineSet
676 1006 m 1xdc
 698.667 1054 727.5 1089.5 762.5 1112.5 c 0
 797.5 1135.5 839.667 1147 889 1147 c 0
 979 1147 1042.5 1112.17 1079.5 1042.5 c 0
 1116.5 972.833 1135 841.667 1135 649 c 2
 1135 0 l 1
 967 0 l 1
 967 641 l 2
 967 799 958.167 897.167 940.5 935.5 c 0
 922.833 973.833 890.667 993 844 993 c 0
 790.667 993 754.167 972.5 734.5 931.5 c 0
 714.833 890.5 705 793.667 705 641 c 2
 705 0 l 1
 537 0 l 1
 537 641 l 2
 537 801 527.5 899.667 508.5 937 c 0
 489.5 974.333 455.333 993 406 993 c 0xdc
 357.333 993 323.5 972.5 304.5 931.5 c 0
 285.5 890.5 276 793.667 276 641 c 2
 276 0 l 1
 109 0 l 1
 109 1120 l 1
 276 1120 l 1xbc
 276 1024 l 1
 298 1064 325.5 1094.5 358.5 1115.5 c 0
 391.5 1136.5 429 1147 471 1147 c 0
 521.667 1147 563.834 1135.33 597.5 1112 c 0
 631.168 1088.67 657.335 1053.33 676 1006 c 1xdc
EndSplineSet
Validated: 1
EndChar

StartChar: n
Encoding: 110 110 95
Width: 1233
Flags: W
HStem: 0 21G<195 379 866 1051> 987 160<520.322 786.673> 1100 20G<195 379>
VStem: 195 184<0 855.048 952 1120> 866 185<0 903.653>
LayerCount: 2
Fore
SplineSet
1051 694 m 2xd8
 1051 0 l 1
 866 0 l 1
 866 694 l 2
 866 794.667 848.333 868.667 813 916 c 0
 777.665 963.333 722.332 987 647 987 c 0xd8
 561 987 494.833 956.5 448.5 895.5 c 0
 402.167 834.5 379 747 379 633 c 2
 379 0 l 1
 195 0 l 1
 195 1120 l 1
 379 1120 l 1xb8
 379 952 l 1
 411.667 1016 456 1064.5 512 1097.5 c 0
 568 1130.5 634.333 1147 711 1147 c 0
 825 1147 910.167 1109.5 966.5 1034.5 c 0
 1022.83 959.5 1051 846 1051 694 c 2xd8
EndSplineSet
Validated: 1
EndChar

StartChar: o
Encoding: 111 111 96
Width: 1233
Flags: W
HStem: -29 156<466.672 766.049> 991 156<466.672 765.794>
VStem: 137 195<290.973 830.363> 901 195<290.972 830.363>
LayerCount: 2
Fore
SplineSet
616 991 m 0
 522.666 991 452 954.667 404 882 c 0
 356 809.333 332 701.667 332 559 c 0
 332 417 356 309.5 404 236.5 c 0
 452 163.5 522.667 127 616 127 c 0
 710 127 781 163.5 829 236.5 c 0
 877 309.5 901 417 901 559 c 0
 901 701.667 877 809.334 829 882 c 0
 781 954.667 710 991 616 991 c 0
616 1147 m 256
 771.333 1147 890.167 1096.67 972.5 996 c 0
 1054.83 895.333 1096 749.667 1096 559 c 0
 1096 367.667 1055 221.833 973 121.5 c 0
 891 21.1667 772 -29 616 -29 c 0
 460.667 -29 342 21.1667 260 121.5 c 0
 178 221.833 137 367.667 137 559 c 0
 137 749.667 178 895.334 260 996 c 0
 342 1096.67 460.667 1147 616 1147 c 256
EndSplineSet
Validated: 1
EndChar

StartChar: p
Encoding: 112 112 97
Width: 1233
Flags: W
HStem: -426 21G<190 375> -29 156<503.809 788.441> 991 156<502.146 788.672> 1100 20G<190 375>
VStem: 190 185<-426 -426 285.895 832.745 977 1120> 915 193<282.81 836.715>
LayerCount: 2
Fore
SplineSet
375 141 m 1xec
 375 -426 l 1
 190 -426 l 1
 190 1120 l 1
 375 1120 l 1xdc
 375 977 l 1
 405.667 1032.33 446.5 1074.5 497.5 1103.5 c 0
 548.5 1132.5 607.333 1147 674 1147 c 0
 809.333 1147 915.5 1094.67 992.5 990 c 0
 1069.5 885.333 1108 740.333 1108 555 c 0
 1108 373 1069.33 230.167 992 126.5 c 0
 914.667 22.8333 808.667 -29 674 -29 c 0
 606 -29 546.5 -14.5 495.5 14.5 c 0
 444.5 43.5 404.333 85.6667 375 141 c 1xec
915 559 m 256
 915 701.667 892.5 809.334 847.5 882 c 0
 802.5 954.667 735.667 991 647 991 c 0xec
 557.667 991 490 954.5 444 881.5 c 0
 398 808.5 375 701 375 559 c 0
 375 417.667 398 310.333 444 237 c 0
 490 163.667 557.667 127 647 127 c 0
 735.667 127 802.5 163.333 847.5 236 c 0
 892.5 308.667 915 416.333 915 559 c 256
EndSplineSet
Validated: 1
EndChar

StartChar: q
Encoding: 113 113 98
Width: 1233
Flags: W
HStem: -33 156<457.789 743.815> 987 156<457.559 743.315>
VStem: 137 195<278.81 832.715> 870 185<-430 139 281.255 828.745 973 1116>
LayerCount: 2
Fore
SplineSet
332 555 m 256
 332 412.333 354.5 304.667 399.5 232 c 0
 444.5 159.333 511.333 123 600 123 c 256
 688.667 123 755.834 159.5 801.5 232.5 c 0
 847.167 305.5 870 413 870 555 c 256
 870 697 847.167 804.5 801.5 877.5 c 0
 755.833 950.5 688.667 987 600 987 c 256
 511.333 987 444.5 950.667 399.5 878 c 0
 354.5 805.333 332 697.667 332 555 c 256
870 139 m 1
 840 83.6666 799.5 41.1666 748.5 11.5 c 0
 697.5 -18.1667 638.333 -33 571 -33 c 0
 437 -33 331.167 18.8333 253.5 122.5 c 0
 175.833 226.167 137 369 137 551 c 0
 137 736.333 175.667 881.333 253 986 c 0
 330.333 1090.67 436.333 1143 571 1143 c 0
 637.667 1143 696.5 1128.5 747.5 1099.5 c 0
 798.5 1070.5 839.333 1028.33 870 973 c 1
 870 1116 l 1
 1055 1116 l 1
 1055 -430 l 1
 870 -430 l 1
 870 139 l 1
EndSplineSet
Validated: 1
EndChar

StartChar: r
Encoding: 114 114 99
Width: 1233
Flags: W
HStem: 0 21G<262 447> 977 170<621.915 988.553> 1100 20G<262 447>
VStem: 262 185<0 796.414 901 1120>
LayerCount: 2
Fore
SplineSet
1055 889 m 1xd0
 1015.67 919.667 975.67 942 935 956 c 0
 894.333 970 849.667 977 801 977 c 0xd0
 686.333 977 598.667 941 538 869 c 0
 477.333 797 447 693 447 557 c 2
 447 0 l 1
 262 0 l 1
 262 1120 l 1
 447 1120 l 1xb0
 447 901 l 1
 477.667 980.333 524.834 1041.17 588.5 1083.5 c 0
 652.167 1125.83 727.667 1147 815 1147 c 0
 860.333 1147 902.67 1141.33 942 1130 c 0
 981.33 1118.67 1019 1101 1055 1077 c 1
 1055 889 l 1xd0
EndSplineSet
EndChar

StartChar: s
Encoding: 115 115 100
Width: 1233
Flags: W
HStem: -29 154<354.02 768.225> 993 154<458.56 876.645>
VStem: 217 186<719.055 938.307> 844 186<195.646 407.356>
DStem2: 678 645 522 506 0.979086 -0.203446<-237.184 172.201>
LayerCount: 2
Fore
SplineSet
973 1081 m 1
 973 901 l 1
 920.333 931.667 867.333 954.667 814 970 c 0
 760.666 985.333 706.333 993 651 993 c 0
 567.667 993 505.5 979.5 464.5 952.5 c 0
 423.5 925.5 403 884.333 403 829 c 0
 403 779 418.333 741.667 449 717 c 0
 479.667 692.333 556 668.333 678 645 c 2
 752 631 l 2
 843.333 613.667 912.5 579 959.5 527 c 0
 1006.5 475 1030 407.333 1030 324 c 0
 1030 213.333 990.667 126.833 912 64.5 c 0
 833.333 2.16667 724 -29 584 -29 c 0
 528.666 -29 470.666 -23.1667 410 -11.5 c 0
 349.333 0.166667 283.667 17.6667 213 41 c 1
 213 231 l 1
 281.667 195.667 347.333 169.167 410 151.5 c 0
 472.667 133.833 532 125 588 125 c 0
 669.333 125 732.333 141.5 777 174.5 c 0
 821.667 207.5 844 253.667 844 313 c 0
 844 398.333 762.333 457.333 599 490 c 1
 591 492 l 1
 522 506 l 1
 416 526.667 338.667 561.5 290 610.5 c 0
 241.333 659.5 217 726.333 217 811 c 0
 217 918.333 253.333 1001.17 326 1059.5 c 0
 398.667 1117.83 502.333 1147 637 1147 c 0
 697 1147 754.667 1141.5 810 1130.5 c 0
 865.333 1119.5 919.667 1103 973 1081 c 1
EndSplineSet
Validated: 1
EndChar

StartChar: t
Encoding: 116 116 101
Width: 1233
Flags: W
HStem: 0 147<668.906 1032> 977 143<131 430 614 1032>
VStem: 430 184<200.498 977 1120 1438>
LayerCount: 2
Fore
SplineSet
614 1438 m 1
 614 1120 l 1
 1032 1120 l 1
 1032 977 l 1
 614 977 l 1
 614 369 l 2
 614 286.333 629.667 228.667 661 196 c 0
 692.333 163.333 747 147 825 147 c 2
 1032 147 l 1
 1032 0 l 1
 807 0 l 2
 669 0 571.667 27.6667 515 83 c 0
 458.333 138.333 430 233.667 430 369 c 2
 430 977 l 1
 131 977 l 1
 131 1120 l 1
 430 1120 l 1
 430 1438 l 1
 614 1438 l 1
EndSplineSet
Validated: 1
EndChar

StartChar: u
Encoding: 117 117 102
Width: 1233
Flags: W
HStem: -29 160<458.957 721.885> 0 21G<866 1051> 1098 20G<195 379 866 1051>
VStem: 195 184<216.016 1118> 866 185<0 168 262.952 1118>
LayerCount: 2
Fore
SplineSet
195 424 m 2xb8
 195 1118 l 1
 379 1118 l 1
 379 424 l 2
 379 323.333 396.833 249.333 432.5 202 c 0
 468.167 154.667 523.333 131 598 131 c 0xb8
 684.667 131 751 161.5 797 222.5 c 0
 843 283.5 866 371 866 485 c 2
 866 1118 l 1
 1051 1118 l 1
 1051 0 l 1
 866 0 l 1
 866 168 l 1
 833.333 103.333 788.833 54.3333 732.5 21 c 0x78
 676.166 -12.3333 610.333 -29 535 -29 c 0
 420.333 -29 335 8.5 279 83.5 c 0
 223 158.5 195 272 195 424 c 2xb8
EndSplineSet
Validated: 1
EndChar

StartChar: v
Encoding: 118 118 103
Width: 1233
Flags: W
HStem: 0 21G<490.893 742.107> 1100 20G<100 297.915 935.064 1133>
DStem2: 291 1120 100 1120 0.334844 -0.942274<0 994.561> 616 180 735 0 0.334844 0.942274<0 994.896>
LayerCount: 2
Fore
SplineSet
100 1120 m 1
 291 1120 l 1
 616 180 l 1
 942 1120 l 1
 1133 1120 l 1
 735 0 l 1
 498 0 l 1
 100 1120 l 1
EndSplineSet
Validated: 1
EndChar

StartChar: w
Encoding: 119 119 104
Width: 1233
Flags: W
HStem: 0 21G<257.321 443.798 789.169 975.679> 1100 20G<0 186.309 1046.69 1233>
DStem2: 182 1120 0 1120 0.227779 -0.973713<0 925.627> 377 215 438 0 0.278438 0.960454<0 449.768> 694 793 616 614 0.27988 -0.960035<150.016 600.241> 856 215 971 0 0.227779 0.973713<0 925.627>
LayerCount: 2
Fore
SplineSet
0 1120 m 1
 182 1120 l 1
 377 215 l 1
 537 793 l 1
 694 793 l 1
 856 215 l 1
 1051 1120 l 1
 1233 1120 l 1
 971 0 l 1
 795 0 l 1
 616 614 l 1
 438 0 l 1
 262 0 l 1
 0 1120 l 1
EndSplineSet
Validated: 1
EndChar

StartChar: x
Encoding: 120 120 105
Width: 1233
Flags: W
HStem: 0 21G<76 303.566 929.39 1157> 1100 20G<115 333.667 896.432 1118>
DStem2: 76 0 289 0 0.597707 0.801715<127.312 682.732 895.988 1397.01> 319 1120 115 1120 0.599085 -0.800686<0 502.206 715.188 1271.2>
LayerCount: 2
Fore
SplineSet
1118 1120 m 1
 717 584 l 1
 1157 0 l 1
 944 0 l 1
 616 449 l 1
 289 0 l 1
 76 0 l 1
 516 584 l 1
 115 1120 l 1
 319 1120 l 1
 616 715 l 1
 911 1120 l 1
 1118 1120 l 1
EndSplineSet
Validated: 1
EndChar

StartChar: y
Encoding: 121 121 106
Width: 1233
Flags: W
HStem: -426 154<184 415.728> 1100 20G<104 306.58 950.534 1153>
DStem2: 299 1120 104 1120 0.365705 -0.930731<0 936.734> 537 18 741 52 0.356876 0.934152<-266.832 0 244.665 1179.68>
LayerCount: 2
Fore
SplineSet
858 360 m 2
 827.333 282 788.333 179.333 741 52 c 0
 675 -124 630.667 -231.333 608 -270 c 0
 577.333 -322 539 -361 493 -387 c 0
 447 -413 393.333 -426 332 -426 c 2
 184 -426 l 1
 184 -272 l 1
 293 -272 l 2
 347 -272 389.333 -256.333 420 -225 c 0
 450.667 -193.667 489.667 -112.667 537 18 c 1
 104 1120 l 1
 299 1120 l 1
 631 244 l 1
 958 1120 l 1
 1153 1120 l 1
 858 360 l 2
EndSplineSet
Validated: 1
EndChar

StartChar: z
Encoding: 122 122 107
Width: 1233
Flags: W
HStem: 0 150<397 1040> 975 147<227 846>
DStem2: 203 170 397 150 0.624103 0.781342<105.449 1030.28>
LayerCount: 2
Fore
SplineSet
227 1122 m 1
 1040 1122 l 1
 1040 954 l 1
 397 150 l 1
 1040 150 l 1
 1040 0 l 1
 203 0 l 1
 203 170 l 1
 846 975 l 1
 227 975 l 1
 227 1122 l 1
EndSplineSet
Validated: 1
EndChar

StartChar: braceleft
Encoding: 123 123 108
Width: 1233
Flags: W
HStem: 0 144<842.707 1091> 708 143<300 543.757> 1413 143<842.707 1091>
VStem: 612 184<189.395 637.284 919.505 1367.49>
LayerCount: 2
Fore
SplineSet
1091 144 m 1
 1091 0 l 1
 1029 0 l 2
 863 0 752 24.667 696 74 c 0
 640 123.333 612 221.667 612 369 c 2
 612 441 l 2
 612 541.666 594.167 611.333 558.5 650 c 0
 522.833 688.667 458 708 364 708 c 2
 300 708 l 1
 300 851 l 1
 364 851 l 2
 458 851 522.833 870 558.5 908 c 0
 594.167 946 612 1015 612 1115 c 2
 612 1188 l 2
 612 1335.33 640 1433.5 696 1482.5 c 0
 752 1531.5 863 1556 1029 1556 c 2
 1091 1556 l 1
 1091 1413 l 1
 1023 1413 l 2
 929 1413 867.667 1398.33 839 1369 c 0
 810.333 1339.67 796 1278 796 1184 c 2
 796 1103 l 2
 796 998.333 780.833 922.333 750.5 875 c 0
 720.167 827.667 668.334 795.667 595 779 c 1
 669 761 721 728.333 751 681 c 0
 781 633.667 796 558 796 454 c 2
 796 373 l 2
 796 279 810.333 217.333 839 188 c 0
 867.667 158.667 929 144 1023 144 c 2
 1091 144 l 1
EndSplineSet
Validated: 1
EndChar

StartChar: braceright
Encoding: 125 125 109
Width: 1233
Flags: W
HStem: 0 144<142 390.293> 708 143<689.243 933> 1413 143<142 390.293>
VStem: 437 184<189.395 637.284 919.505 1367.49>
LayerCount: 2
Fore
SplineSet
142 144 m 1
 210 144 l 2
 304 144 365.333 158.667 394 188 c 0
 422.667 217.333 437 279 437 373 c 2
 437 454 l 2
 437 558 452 633.667 482 681 c 0
 512 728.333 564 761 638 779 c 1
 564.666 795.667 512.833 827.667 482.5 875 c 0
 452.167 922.333 437 998.333 437 1103 c 2
 437 1184 l 2
 437 1278 422.667 1339.67 394 1369 c 0
 365.333 1398.33 304 1413 210 1413 c 2
 142 1413 l 1
 142 1556 l 1
 204 1556 l 2
 370 1556 481 1531.5 537 1482.5 c 0
 593 1433.5 621 1335.33 621 1188 c 2
 621 1115 l 2
 621 1015 638.833 946 674.5 908 c 0
 710.167 870 775 851 869 851 c 2
 933 851 l 1
 933 708 l 1
 869 708 l 2
 775 708 710.167 688.667 674.5 650 c 0
 638.833 611.333 621 541.666 621 441 c 2
 621 369 l 2
 621 221.667 593 123.333 537 74 c 0
 481 24.667 370 0 204 0 c 2
 142 0 l 1
 142 144 l 1
EndSplineSet
Validated: 1
EndChar

StartChar: asciitilde
Encoding: 126 126 110
Width: 1233
Flags: W
HStem: 492 165<679.925 1030.25> 614 166<200.537 581.771>
DStem2: 622 727 612 557 0.914106 -0.405474<-173.024 246.93>
LayerCount: 2
Fore
SplineSet
1145 780 m 1x40
 1145 606 l 1
 1095 566.665 1046.17 537.831 998.5 519.5 c 0
 950.833 501.167 900.667 492 848 492 c 0x80
 788 492 720.333 509 645 543 c 0
 630.333 549.669 619.333 554.335 612 557 c 0
 560.666 579 517.833 594 483.5 602 c 0
 449.167 610 415 614 381 614 c 0x40
 328.333 614 278.5 604.167 231.5 584.5 c 0
 184.5 564.833 136.667 534 88 492 c 1x80
 88 666 l 1
 140 706 190.333 735 239 753 c 0
 287.667 771 339.667 780 395 780 c 0x40
 430.333 780 464.667 776.333 498 769 c 0
 531.333 761.667 572.667 747.667 622 727 c 0
 630 723.667 641 718.667 655 712 c 0
 732.333 675.333 802 657 864 657 c 0x80
 910.668 657 956.834 667.167 1002.5 687.5 c 0
 1048.17 707.833 1095.67 738.667 1145 780 c 1x40
EndSplineSet
Validated: 1
EndChar

StartChar: uni2080
Encoding: 8320 8320 111
Width: 1233
VWidth: 1748
Flags: W
HStem: -315 89<508.425 723.758> 46 151<537.762 695.402> 463 89<509.086 723.758>
VStem: 317 125<-141.793 378.563> 534 165<51.127 192.395> 791 126<-141.793 378.563>
LayerCount: 2
Fore
SplineSet
534 120 m 0
 534 152 534 152 558 175 c 0
 581 197 581 197 615 197 c 0
 652 197 652 197 675 175 c 0
 699 152 699 152 699 120 c 0
 699 87 699 87 675 67 c 0
 650 46 650 46 615 46 c 0
 580 46 580 46 557 67 c 0
 534 88 534 88 534 120 c 0
616 463 m 0
 529 463 529 463 486 378 c 0
 442 293 442 293 442 118 c 0
 442 -56 442 -56 486 -141 c 0
 529 -226 529 -226 616 -226 c 0
 704 -226 704 -226 747 -141 c 0
 791 -56 791 -56 791 118 c 0
 791 293 791 293 747 378 c 0
 704 463 704 463 616 463 c 0
616 552 m 0
 765 552 765 552 841 442 c 0
 917 333 917 333 917 118 c 0
 917 -96 917 -96 841 -206 c 0
 765 -315 765 -315 616 -315 c 0
 466 -315 466 -315 392 -206 c 0
 317 -96 317 -96 317 118 c 0
 317 333 317 333 392 442 c 0
 468 552 468 552 616 552 c 0
EndSplineSet
Validated: 1
EndChar

StartChar: uni2081
Encoding: 8321 8321 112
Width: 1233
VWidth: 1748
Flags: W
HStem: -300 110<362 567 711 915>
VStem: 567 144<-190 421>
DStem2: 344 496 344 380 0.985806 0.167888<0 207.243>
LayerCount: 2
Fore
SplineSet
362 -190 m 5
 567 -190 l 5
 567 421 l 5
 344 380 l 5
 344 496 l 5
 573 535 l 5
 711 535 l 5
 711 -190 l 5
 915 -190 l 5
 915 -300 l 5
 362 -300 l 5
 362 -190 l 5
EndSplineSet
Validated: 1
EndChar

StartChar: uni2082
Encoding: 8322 8322 113
Width: 1233
VWidth: 1748
Flags: W
HStem: -300 114<483 893> 443 109<377.073 693.91>
VStem: 735 158<193.386 400.479>
DStem2: 322 -190 483 -186 0.7148 0.699329<117.88 619.192>
LayerCount: 2
Fore
SplineSet
483 -186 m 5
 893 -186 l 5
 893 -300 l 5
 322 -300 l 5
 322 -190 l 5
 553 36 l 5
 654 133 654 133 694.5 194 c 4
 735 255 735 255 735 306 c 4
 735 367 735 367 685 405 c 4
 635 443 635 443 553 443 c 4
 504 443 504 443 447.5 425 c 4
 391 407 391 407 328 371 c 5
 328 496 l 5
 393 524 393 524 453.5 538 c 4
 514 552 514 552 573 552 c 4
 715 552 715 552 801 485.5 c 4
 887 419 887 419 887 312 c 4
 887 255 887 255 850 195.5 c 4
 813 136 813 136 694 19 c 6
 483 -186 l 5
EndSplineSet
Validated: 1
EndChar

StartChar: uni2083
Encoding: 8323 8323 114
Width: 1233
VWidth: 1748
Flags: W
HStem: -315 109<348.886 717.247> 93 108<487 721.997> 443 109<360.271 721.911>
VStem: 752 151<235.851 408.527> 772 152<-154.674 47.324>
LayerCount: 2
Fore
SplineSet
731 152 m 5xf0
 825 131 825 131 874.5 77 c 4
 924 23 924 23 924 -57 c 4
 924 -181 924 -181 829 -248 c 4
 734 -315 734 -315 557 -315 c 4
 499 -315 499 -315 442 -304.5 c 4
 385 -294 385 -294 326 -274 c 5
 326 -153 l 5
 395 -180 395 -180 451.5 -193 c 4
 508 -206 508 -206 553 -206 c 4
 654 -206 654 -206 713 -165.5 c 4
 772 -125 772 -125 772 -57 c 4xe8
 772 17 772 17 717 55 c 4
 662 93 662 93 553 93 c 6
 487 93 l 5
 487 201 l 5
 561 201 l 6
 654 201 654 201 703 232.5 c 4
 752 264 752 264 752 324 c 4
 752 380 752 380 704 411.5 c 4
 656 443 656 443 569 443 c 4
 525 443 525 443 469 431 c 4
 413 419 413 419 354 396 c 5
 354 517 l 5
 423 534 423 534 481.5 543 c 4
 540 552 540 552 590 552 c 4
 735 552 735 552 819 493 c 4
 903 434 903 434 903 335 c 4
 903 264 903 264 859 217.5 c 4
 815 171 815 171 731 152 c 5xf0
EndSplineSet
Validated: 1
EndChar

StartChar: uni2084
Encoding: 8324 8324 115
Width: 1233
VWidth: 1748
Flags: W
HStem: -114 111<381 655 793 909>
VStem: 655 138<-300 -114 -3 410>
DStem2: 268 7 381 -3 0.566529 0.824042<55.7773 551.336>
LayerCount: 2
Fore
SplineSet
631 535 m 5
 793 535 l 5
 793 -3 l 5
 909 -3 l 5
 909 -114 l 5
 793 -114 l 5
 793 -300 l 5
 655 -300 l 5
 655 -114 l 5
 268 -114 l 5
 268 7 l 5
 631 535 l 5
655 410 m 5
 381 -3 l 5
 655 -3 l 5
 655 410 l 5
EndSplineSet
Validated: 1
EndChar

StartChar: uni2085
Encoding: 8325 8325 116
Width: 1233
VWidth: 1748
Flags: W
HStem: -315 95<340.027 705.524> 158 95<473.922 700.85> 440 95<473 828>
VStem: 358 115<236 440> 767 126<-160.573 95.3364>
LayerCount: 2
Fore
SplineSet
358 535 m 5
 828 535 l 5
 828 440 l 5
 473 440 l 5
 473 236 l 5
 499 245 499 245 526 249 c 4
 553 253 553 253 581 253 c 4
 725 253 725 253 809 176 c 4
 893 100 893 100 893 -31 c 4
 893 -163 893 -163 805 -239 c 4
 716 -315 716 -315 563 -315 c 4
 489 -315 489 -315 428 -306 c 4
 367 -297 367 -297 319 -279 c 5
 319 -165 l 5
 371 -191 371 -191 434 -206 c 4
 491 -220 491 -220 551 -220 c 4
 655 -220 655 -220 711 -171 c 4
 767 -122 767 -122 767 -31 c 4
 767 58 767 58 709 108 c 4
 651 158 651 158 548 158 c 4
 497 158 497 158 450 148 c 4
 402 137 402 137 358 117 c 5
 358 535 l 5
EndSplineSet
Validated: 1
EndChar

StartChar: uni2086
Encoding: 8326 8326 117
Width: 1233
VWidth: 1748
Flags: W
HStem: -315 88<520.786 756.796> 165 89<519.703 756.58> 457 95<534.906 859.108>
VStem: 329 115<137 352.016> 805 124<-179.38 117.075>
LayerCount: 2
Fore
SplineSet
861 519 m 1
 861 415 l 1
 822 435 822 435 778 446 c 0
 734 457 734 457 686 457 c 0
 567 457 567 457 505 376 c 0
 444 295 444 295 444 137 c 1
 476 196 476 196 526 224 c 0
 579 254 579 254 647 254 c 0
 782 254 782 254 855 180 c 0
 929 106 929 106 929 -31 c 0
 929 -166 929 -166 853 -241 c 0
 777 -315 777 -315 640 -315 c 0
 479 -315 479 -315 404 -211 c 0
 329 -107 329 -107 329 118 c 0
 329 330 329 330 419 441 c 0
 509 552 509 552 680 552 c 0
 726 552 726 552 772 543 c 0
 818 535 818 535 861 519 c 1
638 165 m 0
 558 165 558 165 512 113 c 0
 466 61 466 61 466 -31 c 0
 466 -123 466 -123 512 -175 c 0
 558 -227 558 -227 638 -227 c 0
 721 -227 721 -227 763 -177 c 0
 805 -128 805 -128 805 -31 c 0
 805 66 805 66 763 115 c 0
 721 165 721 165 638 165 c 0
EndSplineSet
Validated: 1
EndChar

StartChar: uni2087
Encoding: 8327 8327 118
Width: 1233
VWidth: 1748
Flags: W
HStem: 440 95<317 761>
VStem: 317 584<487 535>
DStem2: 438 -300 569 -300 0.388685 0.921371<50.9177 807.36>
LayerCount: 2
Fore
SplineSet
317 535 m 5
 901 535 l 5
 901 487 l 5
 569 -300 l 5
 438 -300 l 5
 761 440 l 5
 317 440 l 5
 317 535 l 5
EndSplineSet
Validated: 1
EndChar

StartChar: uni2088
Encoding: 8328 8328 119
Width: 1233
VWidth: 1748
Flags: W
HStem: -316 88<487.457 747.874> 97 88<493.045 739.687> 463 87<493.943 738.995>
VStem: 315 126<-183.008 52.2526> 337 125<216.403 431.739> 771 125<216.403 431.739> 792 126<-184.405 52.2533>
LayerCount: 2
Fore
SplineSet
616 97 m 0xf2
 532 97 532 97 487 54 c 1
 441 12 441 12 441 -65 c 0
 441 -142 441 -142 487 -185 c 0
 534 -228 534 -228 616 -228 c 0
 701 -228 701 -228 746 -186 c 0
 792 -143 792 -143 792 -65 c 0
 792 12 792 12 746 54 c 0
 699 97 699 97 616 97 c 0xf2
507 144 m 1
 427 162 427 162 382 212 c 0
 337 263 337 263 337 334 c 0
 337 433 337 433 412 492 c 0
 487 550 487 550 616 550 c 0
 746 550 746 550 821 492 c 0
 896 433 896 433 896 334 c 0xec
 896 263 896 263 851 212 c 0
 806 162 806 162 726 144 c 1
 819 125 819 125 868 69 c 0
 918 13 918 13 918 -76 c 0
 918 -189 918 -189 838 -252 c 0
 758 -316 758 -316 616 -316 c 0
 475 -316 475 -316 395 -253 c 0
 315 -189 315 -189 315 -77 c 0
 315 13 315 13 365 69 c 0
 414 125 414 125 507 144 c 1
462 323 m 0
 462 256 462 256 501 221 c 0
 541 185 541 185 616 185 c 0
 692 185 692 185 732 221 c 0
 771 256 771 256 771 323 c 0
 771 391 771 391 732 427 c 0
 693 463 693 463 616 463 c 0
 541 463 541 463 501 427 c 0
 462 391 462 391 462 323 c 0
EndSplineSet
Validated: 1
EndChar

StartChar: uni2089
Encoding: 8329 8329 120
Width: 1233
VWidth: 1748
Flags: W
HStem: -315 95<372.915 697.263> -17 88<475.063 711.438> 464 88<475.271 711.66>
VStem: 304 123<118.19 416.749> 788 116<-115.31 99>
LayerCount: 2
Fore
SplineSet
595 71 m 4
 675 71 675 71 720 123 c 4
 766 175 766 175 766 268 c 4
 766 360 766 360 720 412 c 4
 675 464 675 464 595 464 c 4
 512 464 512 464 469 414 c 4
 427 365 427 365 427 268 c 4
 427 170 427 170 469 120 c 4
 511 71 511 71 595 71 c 4
371 -282 m 5
 371 -178 l 5
 411 -198 411 -198 455 -209 c 4
 499 -220 499 -220 546 -220 c 4
 666 -220 666 -220 727 -139 c 4
 788 -59 788 -59 788 99 c 5
 759 43 759 43 706 13 c 4
 653 -17 653 -17 585 -17 c 4
 449 -17 449 -17 377 57 c 4
 304 132 304 132 304 269 c 4
 304 404 304 404 379 478 c 4
 455 552 455 552 592 552 c 4
 754 552 754 552 829 448 c 4
 904 343 904 343 904 118 c 4
 904 -93 904 -93 814 -204 c 4
 723 -315 723 -315 551 -315 c 4
 506 -315 506 -315 460 -307 c 4
 414 -298 414 -298 371 -282 c 5
EndSplineSet
Validated: 1
EndChar

StartChar: quoteleft
Encoding: 8216 8216 121
Width: 1233
Flags: W
HStem: 967 589
VStem: 391.5 252<967 1174>
LayerCount: 2
Fore
SplineSet
643.5 967 m 1
 391.5 967 l 1
 391.5 1174 l 1
 687.5 1556 l 1
 791.5 1556 l 5
 643.5 1174 l 1
 643.5 967 l 1
EndSplineSet
Validated: 1
EndChar

StartChar: quoteright
Encoding: 8217 8217 122
Width: 1233
Flags: W
HStem: 967 589
VStem: 589.5 252<1350 1556>
LayerCount: 2
Fore
SplineSet
589.5 1556 m 1
 841.5 1556 l 1
 841.5 1350 l 1
 544.5 967 l 1
 441.5 967 l 5
 589.5 1350 l 1
 589.5 1556 l 1
EndSplineSet
Validated: 1
EndChar

StartChar: quotedblleft
Encoding: 8220 8220 123
Width: 1233
Flags: W
HStem: 967 589
VStem: 161 254<967 1174> 622 252<967 1174>
LayerCount: 2
Fore
SplineSet
874 967 m 1
 622 967 l 1
 622 1174 l 1
 918 1556 l 1
 1022 1556 l 1
 874 1174 l 1
 874 967 l 1
415 967 m 1
 161 967 l 1
 161 1174 l 1
 460 1556 l 1
 563 1556 l 1
 415 1174 l 1
 415 967 l 1
EndSplineSet
Validated: 1
EndChar

StartChar: quotedblright
Encoding: 8221 8221 124
Width: 1233
Flags: W
HStem: 967 589
VStem: 360 252<1350 1556> 819 252<1350 1556>
LayerCount: 2
Fore
SplineSet
819 1556 m 1
 1071 1556 l 1
 1071 1350 l 1
 774 967 l 1
 671 967 l 1
 819 1350 l 1
 819 1556 l 1
360 1556 m 1
 612 1556 l 1
 612 1350 l 1
 316 967 l 1
 212 967 l 1
 360 1350 l 1
 360 1556 l 1
EndSplineSet
Validated: 1
EndChar

StartChar: uniE010
Encoding: 57360 57360 125
Width: 2466
Flags: W
HStem: 1473 20G<1132.9 1332.25>
VStem: 1602.75 115<174.2 551.2 731.2 1108.2>
DStem2: 355.25 -190 546.25 -190 0.423593 0.905853<80.9062 1857.92> 1567.75 641.2 1602.75 551.2 0.865707 0.500551<-407.239 -14.7498 174.906 567.186> 1602.75 731.2 1567.75 641.2 0.865707 -0.500551<-392.28 0 189.655 582.145>
LayerCount: 2
Fore
SplineSet
1142.25 1493 m 5
 1332.25 1493 l 5
 546.25 -190 l 5
 355.25 -190 l 5
 1142.25 1493 l 5
2110.75 835.2 m 1
 1752.75 641.2 l 1
 2110.75 446.2 l 1
 2053.75 348.2 l 1
 1717.75 551.2 l 1
 1717.75 174.2 l 1
 1602.75 174.2 l 1
 1602.75 551.2 l 1
 1266.75 348.2 l 1
 1209.75 446.2 l 1
 1567.75 641.2 l 1
 1209.75 835.2 l 1
 1266.75 934.2 l 1
 1602.75 731.2 l 1
 1602.75 1108.2 l 1
 1717.75 1108.2 l 1
 1717.75 731.2 l 1
 2053.75 934.2 l 1
 2110.75 835.2 l 1
EndSplineSet
Validated: 1
EndChar

StartChar: uniE011
Encoding: 57361 57361 126
Width: 2466
Flags: W
HStem: 1473 20G<1911.4 2110.75>
VStem: 748.25 115<174.2 551.2 731.2 1108.2>
DStem2: 713.25 641.2 748.25 551.2 0.865707 0.500551<-407.239 -14.7498 174.906 567.186> 748.25 731.2 713.25 641.2 0.865707 -0.500551<-392.28 0 189.655 582.145> 1133.75 -190 1324.75 -190 0.423593 0.905853<80.9062 1857.92>
LayerCount: 2
Fore
SplineSet
1920.75 1493 m 5
 2110.75 1493 l 5
 1324.75 -190 l 5
 1133.75 -190 l 5
 1920.75 1493 l 5
355.25 835.2 m 1
 412.25 934.2 l 1
 748.25 731.2 l 1
 748.25 1108.2 l 1
 863.25 1108.2 l 1
 863.25 731.2 l 1
 1199.25 934.2 l 1
 1256.25 835.2 l 1
 898.25 641.2 l 1
 1256.25 446.2 l 1
 1199.25 348.2 l 1
 863.25 551.2 l 1
 863.25 174.2 l 1
 748.25 174.2 l 1
 748.25 551.2 l 1
 412.25 348.2 l 1
 355.25 446.2 l 1
 713.25 641.2 l 1
 355.25 835.2 l 1
EndSplineSet
Validated: 1
EndChar

StartChar: uniE012
Encoding: 57362 57362 127
Width: 2466
Flags: W
HStem: 1473 20G<1172.15 1371.5 1872.15 2071.5>
DStem2: 394.5 -190 585.5 -190 0.423593 0.905853<80.9062 1857.92> 1094.5 -190 1285.5 -190 0.423593 0.905853<80.9062 1857.92>
LayerCount: 2
Fore
SplineSet
1881.5 1493 m 5
 2071.5 1493 l 5
 1285.5 -190 l 5
 1094.5 -190 l 5
 1881.5 1493 l 5
1181.5 1493 m 5
 1371.5 1493 l 5
 585.5 -190 l 5
 394.5 -190 l 5
 1181.5 1493 l 5
EndSplineSet
Validated: 1
EndChar

StartChar: uniE013
Encoding: 57363 57363 128
Width: 3699
Flags: W
HStem: 938 555<571 745 954 1128 1571 1745 1954 2128 2571 2745 2954 3128>
VStem: 571 174<938 1493> 954 174<938 1493> 1571 174<938 1493> 1954 174<938 1493> 2571 174<938 1493> 2954 174<938 1493>
LayerCount: 2
Fore
SplineSet
3128 1493 m 1
 3128 938 l 1
 2954 938 l 1
 2954 1493 l 1
 3128 1493 l 1
2745 1493 m 1
 2745 938 l 1
 2571 938 l 1
 2571 1493 l 1
 2745 1493 l 1
2128 1493 m 1
 2128 938 l 1
 1954 938 l 1
 1954 1493 l 1
 2128 1493 l 1
1745 1493 m 1
 1745 938 l 1
 1571 938 l 1
 1571 1493 l 1
 1745 1493 l 1
1128 1493 m 1
 1128 938 l 1
 954 938 l 1
 954 1493 l 1
 1128 1493 l 1
745 1493 m 1
 745 938 l 1
 571 938 l 1
 571 1493 l 1
 745 1493 l 1
EndSplineSet
Validated: 1
EndChar

StartChar: uniE014
Encoding: 57364 57364 129
Width: 3699
Flags: W
HStem: 938 555<762.5 936.5 1762.5 1936.5 2762.5 2936.5>
VStem: 762.5 174<938 1493> 1762.5 174<938 1493> 2762.5 174<938 1493>
CounterMasks: 1 70
LayerCount: 2
Fore
SplineSet
2936.5 1493 m 1
 2936.5 938 l 1
 2762.5 938 l 1
 2762.5 1493 l 1
 2936.5 1493 l 1
1936.5 1493 m 1
 1936.5 938 l 1
 1762.5 938 l 1
 1762.5 1493 l 1
 1936.5 1493 l 1
936.5 1493 m 1
 936.5 938 l 1
 762.5 938 l 1
 762.5 1493 l 1
 936.5 1493 l 1
EndSplineSet
Validated: 1
EndChar

StartChar: uniE015
Encoding: 57365 57365 130
Width: 3699
Flags: W
HStem: 1473 20G<1438.65 1638 2138.65 2338 2838.65 3038>
DStem2: 661 -190 852 -190 0.423593 0.905853<80.9062 1857.92> 1361 -190 1552 -190 0.423593 0.905853<80.9062 1857.92> 2061 -190 2252 -190 0.423593 0.905853<80.9062 1857.92>
LayerCount: 2
Fore
SplineSet
2848 1493 m 5
 3038 1493 l 5
 2252 -190 l 5
 2061 -190 l 5
 2848 1493 l 5
2148 1493 m 5
 2338 1493 l 5
 1552 -190 l 5
 1361 -190 l 5
 2148 1493 l 5
1448 1493 m 5
 1638 1493 l 5
 852 -190 l 5
 661 -190 l 5
 1448 1493 l 5
EndSplineSet
Validated: 1
EndChar

StartChar: uniE016
Encoding: 57366 57366 131
Width: 2466
Flags: W
HStem: 0.799805 21G<912.167 1122.5 1343.5 1553.83>
VStem: 663.5 195<482.17 1068.51> 1607.5 195<482.448 1070.85>
LayerCount: 2
Fore
SplineSet
1343.5 1551.2 m 5
 1503.5 1551.2 l 5
 1604.17 1417.47 1679.17 1286.57 1728.5 1158.5 c 4
 1777.83 1030.43 1802.5 903.217 1802.5 776.85 c 4
 1802.5 649.35 1777.83 521.566 1728.5 393.5 c 4
 1679.17 265.433 1604.17 134.533 1503.5 0.799805 c 5
 1343.5 0.799805 l 5
 1432.17 132.267 1498.33 262.317 1542 390.95 c 4
 1585.67 519.583 1607.5 648.217 1607.5 776.85 c 4
 1607.5 906.05 1585.67 1034.97 1542 1163.6 c 4
 1498.33 1292.23 1432.17 1421.43 1343.5 1551.2 c 5
1122.5 1551.2 m 5
 1033.83 1422 967.667 1293.22 924 1164.88 c 4
 880.333 1036.53 858.5 907.183 858.5 776.85 c 4
 858.5 647.083 880.333 517.883 924 389.25 c 4
 967.667 260.617 1033.83 131.133 1122.5 0.799805 c 5
 962.5 0.799805 l 5
 861.833 135.667 786.833 266.992 737.5 394.775 c 4
 688.167 522.558 663.5 649.917 663.5 776.85 c 4
 663.5 903.217 688.167 1030.43 737.5 1158.5 c 4
 786.833 1286.57 861.833 1417.47 962.5 1551.2 c 5
 1122.5 1551.2 l 5
EndSplineSet
Validated: 1
EndChar

StartChar: uniE017
Encoding: 57367 57367 132
Width: 2466
Flags: W
HStem: 0 143<872.5 1112.5 1353.5 1593.5> 1413 143<872.5 1112.5 1353.5 1593.5>
VStem: 688.5 424<0 143 1413 1556> 688.5 184<143 1413> 1353.5 424<0 143 1413 1556> 1593.5 184<143 1413>
LayerCount: 2
Fore
SplineSet
1777.5 1556 m 5xc8
 1777.5 0 l 5
 1353.5 0 l 5
 1353.5 143 l 5xc8
 1593.5 143 l 5
 1593.5 1413 l 5xc4
 1353.5 1413 l 5
 1353.5 1556 l 5
 1777.5 1556 l 5xc8
688.5 1556 m 5xe0
 1112.5 1556 l 5
 1112.5 1413 l 5xe0
 872.5 1413 l 5
 872.5 143 l 5xd0
 1112.5 143 l 5
 1112.5 0 l 5
 688.5 0 l 5
 688.5 1556 l 5xe0
EndSplineSet
Validated: 1
EndChar

StartChar: uniE018
Encoding: 57368 57368 133
Width: 2466
Flags: W
HStem: 0 144<892.707 1141 1325 1573.29> 708 143<350 593.757 1872.24 2116> 1413 143<892.707 1141 1325 1573.29>
VStem: 662 184<189.395 637.284 919.505 1367.49> 1620 184<189.395 637.284 919.505 1367.49>
LayerCount: 2
Fore
SplineSet
1325 144 m 1
 1393 144 l 2
 1487 144 1548.33 158.667 1577 188 c 0
 1605.67 217.333 1620 279 1620 373 c 2
 1620 454 l 2
 1620 558 1635 633.667 1665 681 c 0
 1695 728.333 1747 761 1821 779 c 1
 1747.67 795.667 1695.83 827.667 1665.5 875 c 0
 1635.17 922.333 1620 998.333 1620 1103 c 2
 1620 1184 l 2
 1620 1278 1605.67 1339.67 1577 1369 c 0
 1548.33 1398.33 1487 1413 1393 1413 c 2
 1325 1413 l 1
 1325 1556 l 1
 1387 1556 l 2
 1553 1556 1664 1531.5 1720 1482.5 c 0
 1776 1433.5 1804 1335.33 1804 1188 c 2
 1804 1115 l 2
 1804 1015 1821.83 946 1857.5 908 c 0
 1893.17 870 1958 851 2052 851 c 2
 2116 851 l 1
 2116 708 l 1
 2052 708 l 2
 1958 708 1893.17 688.667 1857.5 650 c 0
 1821.83 611.333 1804 541.666 1804 441 c 2
 1804 369 l 2
 1804 221.667 1776 123.333 1720 74 c 0
 1664 24.667 1553 0 1387 0 c 2
 1325 0 l 1
 1325 144 l 1
1141 144 m 1
 1141 0 l 1
 1079 0 l 2
 913 0 802 24.667 746 74 c 0
 690 123.333 662 221.667 662 369 c 2
 662 441 l 2
 662 541.666 644.167 611.333 608.5 650 c 0
 572.833 688.667 508 708 414 708 c 2
 350 708 l 1
 350 851 l 1
 414 851 l 2
 508 851 572.833 870 608.5 908 c 0
 644.167 946 662 1015 662 1115 c 2
 662 1188 l 2
 662 1335.33 690 1433.5 746 1482.5 c 0
 802 1531.5 913 1556 1079 1556 c 2
 1141 1556 l 1
 1141 1413 l 1
 1073 1413 l 2
 979 1413 917.667 1398.33 889 1369 c 0
 860.333 1339.67 846 1278 846 1184 c 2
 846 1103 l 2
 846 998.333 830.833 922.333 800.5 875 c 0
 770.167 827.667 718.334 795.667 645 779 c 1
 719 761 771 728.333 801 681 c 0
 831 633.667 846 558 846 454 c 2
 846 373 l 2
 846 279 860.333 217.333 889 188 c 0
 917.667 158.667 979 144 1073 144 c 2
 1141 144 l 1
EndSplineSet
Validated: 1
EndChar

StartChar: uniE019
Encoding: 57369 57369 134
Width: 1233
Flags: W
HStem: 0 21G<1114.74 1145>
LayerCount: 2
Fore
SplineSet
1145 1321 m 1
 278 780.5 l 1
 1145 243 l 1
 1145 0 l 1
 88 698.5 l 1
 88 864.5 l 1
 1145 1563 l 1
 1145 1321 l 1
EndSplineSet
Validated: 1
EndChar

StartChar: uniE01A
Encoding: 57370 57370 135
Width: 1233
Flags: W
HStem: 0 21G<88 118.265>
LayerCount: 2
Fore
SplineSet
88 1321 m 1
 88 1563 l 1
 1145 864.5 l 1
 1145 698.5 l 1
 88 0 l 1
 88 243 l 1
 955 780.5 l 1
 88 1321 l 1
EndSplineSet
Validated: 1
EndChar

StartChar: uniE01B
Encoding: 57371 57371 136
Width: 1233
Flags: W
HStem: 555 172<88 977>
VStem: 977 168<236 555>
LayerCount: 2
Fore
SplineSet
88 727 m 5
 1145 727 l 5
 1145 236 l 5
 977 236 l 5
 977 555 l 5
 88 555 l 5
 88 727 l 5
EndSplineSet
Validated: 1
EndChar

StartChar: uniE01C
Encoding: 57372 57372 137
Width: 2466
Flags: W
HStem: -29 160<485.386 747.026> 0 21G<1309 1536.57 2162.39 2390> 616 269<522.707 708.746> 1100 20G<1348 1566.67 2129.43 2351> 1360 160<485.386 747.026>
VStem: 133 203<354.108 1136.79> 483 267<656.222 843.746> 897 203<354.108 1136.79>
DStem2: 1309 0 1522 0 0.597707 0.801715<127.312 682.732 895.988 1397.01> 1552 1120 1348 1120 0.599085 -0.800686<0 502.206 715.188 1271.2>
CounterMasks: 1 07
LayerCount: 2
Fore
SplineSet
2351 1120 m 1x7f
 1950 584 l 1
 2390 0 l 1
 2177 0 l 1
 1849 449 l 1
 1522 0 l 1
 1309 0 l 1
 1749 584 l 1
 1348 1120 l 1
 1552 1120 l 1
 1849 715 l 1
 2144 1120 l 1
 2351 1120 l 1x7f
483 750 m 0
 483 786.668 495.833 818.335 521.5 845 c 0
 547.167 871.667 578 885 614 885 c 0
 651.333 885 683.333 871.667 710 845 c 0
 736.667 818.333 750 786.667 750 750 c 0
 750 712.667 736.833 681 710.5 655 c 0
 684.167 629 652 616 614 616 c 0
 576.667 616 545.5 628.667 520.5 654 c 0
 495.5 679.333 483 711.333 483 750 c 0
616 1360 m 0
 522 1360 451.833 1309.33 405.5 1208 c 0
 359.167 1106.67 336 952.333 336 745 c 0
 336 538.333 359.167 384.333 405.5 283 c 0
 451.833 181.667 522 131 616 131 c 0xbf
 710.667 131 781.167 181.667 827.5 283 c 0
 873.833 384.333 897 538.333 897 745 c 0
 897 952.333 873.833 1106.67 827.5 1208 c 0
 781.167 1309.33 710.667 1360 616 1360 c 0
616 1520 m 256
 775.333 1520 895.833 1454.67 977.5 1324 c 0
 1059.17 1193.33 1100 1000.33 1100 745 c 0
 1100 490.333 1059.17 297.667 977.5 167 c 0
 895.833 36.3333 775.333 -29 616 -29 c 256
 456.667 -29 336.333 36.3334 255 167 c 0
 173.667 297.667 133 490.333 133 745 c 0
 133 1000.33 173.667 1193.33 255 1324 c 0
 336.333 1454.67 456.667 1520 616 1520 c 256
EndSplineSet
Validated: 1
EndChar

StartChar: uniE01D
Encoding: 57373 57373 138
Width: 2466
Flags: W
HStem: 0 305<728 980 1486 1738> 760 303<728 980 1486 1738>
VStem: 728 252<0 305 760 1063> 1486 252<0 305 760 1063>
LayerCount: 2
Fore
SplineSet
1486 1063 m 1
 1738 1063 l 1
 1738 760 l 1
 1486 760 l 1
 1486 1063 l 1
1486 305 m 1
 1738 305 l 1
 1738 0 l 1
 1486 0 l 1
 1486 305 l 1
728 1063 m 1
 980 1063 l 1
 980 760 l 1
 728 760 l 1
 728 1063 l 1
728 305 m 1
 980 305 l 1
 980 0 l 1
 728 0 l 1
 728 305 l 1
EndSplineSet
Validated: 1
EndChar

StartChar: uniE053
Encoding: 57427 57427 139
Width: 2466
Flags: W
HStem: 1473 20G<179 379.34>
DStem2: 370 1493 179 1493 0.423593 -0.905853<0 1777.01>
LayerCount: 2
Fore
SplineSet
370 1493 m 1
 1156 -190 l 1
 966 -190 l 1
 179 1493 l 1
 370 1493 l 1
EndSplineSet
Validated: 1
EndChar

StartChar: uniE054
Encoding: 57428 57428 140
Width: 3699
Flags: W
HStem: 192 172<600 3099> 556 172<600 3099> 920 170<600 3099>
LayerCount: 2
Fore
SplineSet
600 728 m 1
 3099 728 l 1
 3099 556 l 1
 600 556 l 1
 600 728 l 1
600 364 m 1
 3099 364 l 1
 3099 192 l 1
 600 192 l 1
 600 364 l 1
600 1090 m 1
 3099 1090 l 1
 3099 920 l 1
 600 920 l 1
 600 1090 l 1
EndSplineSet
Validated: 1
EndChar

StartChar: uniE055
Encoding: 57429 57429 141
Width: 2466
Flags: W
HStem: 305 166<1296.42 1646.11> 430 166<818.807 1193.8> 674 166<1292.94 1648.97> 797 166<817.037 1196.03>
DStem2: 1239.5 909 1228.5 739 0.913984 -0.405751<-174.282 245.6> 1238.5 541 1228.5 371 0.910366 -0.413803<0 246.618>
LayerCount: 2
Fore
SplineSet
1761.5 963 m 1x10
 1761.5 788 l 1
 1711.5 748.665 1662.67 719.832 1615 701.5 c 0
 1567.33 683.167 1517.17 674 1464.5 674 c 0x20
 1404.5 674 1336.83 691 1261.5 725 c 0
 1246.83 731.678 1235.83 736.345 1228.5 739 c 0
 1177.17 761.667 1134.33 777 1100 785 c 0
 1065.67 793 1031.5 797 997.5 797 c 0x10
 944.833 797 895 787.167 848 767.5 c 0
 801 747.833 753.167 716.667 704.5 674 c 1x20
 704.5 848 l 1
 756.5 888 806.833 917.167 855.5 935.5 c 0
 904.167 953.833 956.167 963 1011.5 963 c 0x10
 1046.84 963 1081.17 959.333 1114.5 952 c 0
 1147.83 944.663 1189.5 930.33 1239.5 909 c 0
 1246.17 906.333 1256.83 901.333 1271.5 894 c 0
 1348.83 858 1418.5 840 1480.5 840 c 0x20
 1527.17 840 1573.33 850 1619 870 c 0
 1664.67 890 1712.17 921 1761.5 963 c 1x10
1761.5 596 m 1x40
 1761.5 420 l 1
 1711.5 380.667 1662.67 351.667 1615 333 c 0
 1567.33 314.333 1517.17 305 1464.5 305 c 0x80
 1404.5 305 1336.83 322 1261.5 356 c 0
 1239.5 366 1239.5 366 1228.5 371 c 0
 1173.17 395 1129 410.833 1096 418.5 c 0
 1063 426.167 1030.17 430 997.5 430 c 0x40
 945.5 430 896 420 849 400 c 0
 802 380 753.833 348.333 704.5 305 c 1x80
 704.5 479 l 1
 757.168 520.333 807.835 550.167 856.5 568.5 c 0
 905.168 586.833 956.834 596 1011.5 596 c 0x40
 1075.5 596 1150.83 577.667 1237.5 541 c 1
 1238.5 541 l 1
 1249.5 536 1249.5 536 1271.5 526 c 0
 1348.83 489.333 1418.5 471 1480.5 471 c 0x80
 1525.83 471 1571.5 481.167 1617.5 501.5 c 0
 1663.5 521.833 1711.5 553.333 1761.5 596 c 1x40
EndSplineSet
Validated: 1
EndChar

StartChar: uniE01E
Encoding: 57374 57374 142
Width: 1233
Flags: W
HStem: 563 164<336 1167>
DStem2: 66 686 336 727 0.707107 0.707107<219.91 588.313> 336 563 66 604 0.708809 -0.705401<0 366.601>
LayerCount: 2
Fore
SplineSet
66 604 m 1
 66 686 l 1
 482 1102 l 1
 597 987 l 1
 336 727 l 1
 1167 727 l 1
 1167 563 l 1
 336 563 l 1
 597 305 l 1
 482 190 l 1
 66 604 l 1
EndSplineSet
Validated: 1
EndChar
